<svg xmlns="http://www.w3.org/2000/svg" viewBox="0 0 2130 1984" width="100" height="100" role="img" aria-label="durin — anvil and forge flame">
<path fill="#7c8791" opacity="1.000000" stroke="none" 
	d="
M1296.087646,1867.741699 
	C1283.339966,1867.590332 1270.592285,1867.439087 1256.197510,1867.181763 
	C1242.361206,1867.327026 1230.171875,1867.578369 1217.982666,1867.829590 
	C1205.273560,1867.645630 1192.564331,1867.461792 1178.276367,1867.164795 
	C1171.752319,1867.254761 1166.807007,1867.457886 1161.158081,1867.464233 
	C1159.011353,1867.395386 1157.568359,1867.523071 1155.440308,1867.351562 
	C1149.828979,1867.294067 1144.902588,1867.535645 1139.976318,1867.777222 
	C1127.241943,1867.632568 1114.507446,1867.487915 1100.853760,1867.566406 
	C1095.733643,1867.609375 1091.532837,1867.429443 1086.669189,1867.499268 
	C1077.973022,1867.570801 1069.939697,1867.392700 1061.009155,1867.436523 
	C1035.318115,1867.512451 1010.524353,1867.366333 984.805603,1867.437988 
	C971.211609,1867.561035 958.542542,1867.466431 944.050232,1867.359741 
	C929.464783,1867.509399 916.702637,1867.671021 903.940491,1867.832886 
	C896.598877,1867.645142 889.257263,1867.457397 880.359802,1867.173340 
	C874.527344,1867.303223 870.250793,1867.529541 865.974182,1867.755859 
	C853.264038,1867.612915 840.553955,1867.469971 826.195068,1867.219238 
	C811.682495,1867.285767 798.818665,1867.460205 785.033813,1867.463623 
	C772.048706,1867.452393 759.984558,1867.611938 747.011475,1867.544678 
	C733.443237,1867.434692 720.783875,1867.551636 707.196777,1867.467041 
	C694.186035,1867.434814 682.102966,1867.603882 669.334595,1867.468994 
	C664.012573,1866.715332 659.376038,1866.265381 654.432861,1865.039795 
	C653.629333,1860.716431 652.836914,1857.180542 652.694092,1853.618652 
	C652.351318,1845.069336 652.313599,1836.507812 652.339844,1827.032959 
	C652.374878,1813.416504 652.222900,1800.718384 652.297485,1787.116211 
	C652.555237,1779.620728 652.561829,1773.029053 652.624878,1766.437988 
	C652.682922,1760.375366 653.884094,1754.659058 658.553284,1749.649414 
	C662.786072,1747.654053 666.381104,1745.864502 670.803223,1744.155518 
	C683.942810,1741.145752 696.255310,1738.055542 709.311401,1734.853882 
	C723.596191,1728.649170 737.137390,1722.555908 751.328247,1716.329834 
	C755.322998,1714.139648 758.667969,1712.082153 762.690552,1709.894043 
	C771.619751,1703.614990 779.871460,1697.466309 788.703003,1691.075928 
	C796.305298,1684.050293 803.327759,1677.266479 810.956909,1670.180054 
	C817.117554,1662.628906 822.671448,1655.380249 828.769287,1647.741333 
	C832.621338,1641.619385 835.929382,1635.887695 839.673584,1629.678467 
	C846.398254,1616.764160 852.395203,1604.220581 854.875122,1589.592041 
	C856.410217,1575.910767 857.460693,1562.848877 858.685547,1548.904297 
	C858.144592,1534.932129 856.640503,1521.999268 851.158447,1509.053467 
	C845.755615,1493.431641 838.482300,1479.872437 825.919067,1469.062988 
	C824.548706,1467.594604 823.347778,1466.681763 821.786987,1465.202881 
	C811.459961,1456.704712 800.873718,1450.013062 787.355469,1447.508423 
	C773.794312,1444.137695 760.858643,1441.200684 747.219299,1437.936523 
	C734.178894,1434.679565 721.842224,1431.749878 709.027466,1428.417725 
	C705.684448,1427.376343 702.819519,1426.737305 699.313049,1425.742188 
	C688.482788,1422.794189 678.294067,1420.202026 667.582153,1417.104370 
	C654.716309,1413.035522 642.373718,1409.472046 629.448669,1405.455078 
	C616.403870,1400.980835 603.941406,1396.960449 591.020752,1392.497681 
	C585.009949,1390.102905 579.457458,1388.150391 573.303589,1385.826050 
	C565.177307,1382.775635 557.652405,1380.097046 549.676147,1376.893188 
	C539.586853,1372.313599 529.986511,1368.165649 520.286011,1364.266846 
	C517.655701,1363.209717 514.722717,1362.905640 511.313690,1361.915283 
	C501.795166,1357.062134 492.891602,1352.549683 483.533997,1347.545532 
	C479.408936,1345.309937 475.737915,1343.565918 471.656342,1341.273682 
	C458.881989,1334.059326 446.518188,1327.393311 433.632904,1320.235718 
	C426.740234,1315.830811 420.369049,1311.917358 413.604309,1307.462646 
	C407.513519,1303.258179 401.816284,1299.594849 395.729767,1295.385010 
	C377.187958,1279.834961 359.035492,1264.831177 340.566559,1249.202759 
	C332.886292,1240.816650 325.522461,1233.055420 317.961182,1224.680176 
	C313.800110,1219.362915 309.836456,1214.659546 305.699768,1209.305054 
	C298.306885,1196.448853 291.087036,1184.243896 283.815002,1171.317627 
	C283.502838,1169.381836 283.242828,1168.167236 282.687866,1165.574707 
	C294.363861,1165.574707 305.236572,1165.574707 317.022644,1165.761230 
	C330.588440,1165.830322 343.240814,1165.712891 356.817963,1165.797363 
	C369.869690,1165.843994 381.996674,1165.688965 395.036499,1165.717651 
	C408.603546,1165.820679 421.257751,1165.739868 434.838287,1165.836914 
	C446.507996,1165.887695 457.251373,1165.760864 468.748779,1165.802979 
	C471.033722,1165.863281 472.564575,1165.754639 475.015259,1165.795166 
	C487.929230,1165.856323 499.923462,1165.768066 512.844482,1165.858887 
	C526.545654,1165.904053 539.320007,1165.770264 553.012695,1165.795410 
	C565.926453,1165.863281 577.921753,1165.772339 590.844238,1165.861816 
	C604.546265,1165.897339 617.321167,1165.752441 631.012207,1165.782227 
	C644.585938,1165.842529 657.243469,1165.728027 670.827271,1165.804199 
	C684.363464,1166.233887 696.973389,1166.472778 709.656738,1167.317017 
	C710.141235,1169.481079 710.552307,1171.039795 710.946167,1173.437866 
	C713.484192,1186.225830 716.039368,1198.174561 718.539185,1210.871582 
	C720.115967,1217.859253 721.748108,1224.098389 723.404541,1231.141602 
	C726.938416,1244.626709 730.448059,1257.307739 733.924072,1270.773071 
	C738.385620,1284.404419 742.880798,1297.251587 747.443726,1310.743164 
	C748.388062,1312.175171 749.264648,1312.963013 751.416565,1314.896973 
	C751.416565,1304.831299 751.416565,1296.356689 751.553711,1286.997803 
	C751.602478,1280.740723 751.514038,1275.367920 751.651917,1269.098633 
	C751.804382,1260.808105 751.730591,1253.414062 751.862793,1245.102539 
	C751.908936,1232.755981 751.748962,1221.326782 751.726196,1208.976807 
	C751.768127,1196.070923 751.672791,1184.085693 751.748779,1171.171631 
	C751.796387,1157.459229 751.672607,1144.675781 751.696838,1131.021729 
	C751.858276,1127.854858 751.854126,1125.558716 751.887878,1123.262939 
	C752.097534,1109.024170 757.930237,1103.172485 772.327637,1102.685303 
	C777.555542,1102.508545 782.780579,1102.247803 788.921753,1102.244385 
	C801.881592,1102.339233 813.926636,1102.215332 826.886963,1102.319092 
	C840.538269,1102.376221 853.274353,1102.205688 866.924194,1102.258301 
	C879.887390,1102.336182 891.936829,1102.191040 904.899841,1102.276855 
	C918.548523,1102.358887 931.283508,1102.209839 944.934326,1102.272461 
	C958.544250,1102.389282 971.238342,1102.294556 984.857300,1102.392090 
	C997.872986,1102.444336 1009.963867,1102.304443 1022.968750,1102.375122 
	C1036.567139,1102.453247 1049.251587,1102.320801 1062.860229,1102.378418 
	C1075.198608,1102.435303 1086.612915,1102.302246 1098.513672,1102.342529 
	C1099.324463,1102.400269 1099.648682,1102.284546 1100.893311,1102.370728 
	C1114.539551,1102.371948 1127.265381,1102.171509 1140.902588,1102.211182 
	C1153.870972,1102.317627 1165.927979,1102.183716 1178.900391,1102.272217 
	C1192.548218,1102.343994 1205.280396,1102.193481 1218.926147,1102.266968 
	C1231.888794,1102.341553 1243.937988,1102.192017 1256.899414,1102.280029 
	C1270.551270,1102.379028 1283.290771,1102.240356 1296.946289,1102.308594 
	C1310.559326,1102.402100 1323.256592,1102.288696 1336.875244,1102.378296 
	C1349.875854,1102.433960 1361.955078,1102.286499 1374.951782,1102.335327 
	C1387.915283,1102.345947 1399.961304,1102.160522 1412.918457,1102.212280 
	C1426.561035,1102.326294 1439.292725,1102.203125 1452.941162,1102.283936 
	C1466.557739,1102.370728 1479.257446,1102.253540 1492.879150,1102.334473 
	C1505.889282,1102.426147 1517.977417,1102.319824 1530.982056,1102.406006 
	C1544.592163,1102.421997 1557.285767,1102.245605 1570.895752,1102.288086 
	C1583.893066,1102.390381 1595.974121,1102.273804 1608.968506,1102.370361 
	C1622.583984,1102.401489 1635.285889,1102.219360 1648.903564,1102.256958 
	C1662.554321,1102.345581 1675.289307,1102.214478 1688.936035,1102.311768 
	C1701.893066,1102.379517 1713.938477,1102.219116 1726.898682,1102.284912 
	C1740.548340,1102.362183 1753.283081,1102.213379 1766.933350,1102.277466 
	C1779.897217,1102.334351 1791.945801,1102.178345 1804.808594,1102.232544 
	C1806.947266,1102.476685 1808.272583,1102.489502 1809.595825,1102.547729 
	C1819.492310,1102.983521 1821.689575,1105.216675 1821.898804,1115.078247 
	C1822.018188,1120.700928 1822.108276,1126.324097 1822.033203,1132.872803 
	C1821.987549,1146.549683 1822.120239,1159.301025 1822.059814,1172.858154 
	C1821.073730,1179.737061 1820.281006,1185.809937 1819.015625,1192.387573 
	C1815.818481,1202.482544 1810.199951,1210.406372 1803.451172,1218.299805 
	C1797.862671,1222.327881 1792.888916,1226.089478 1787.200195,1229.951904 
	C1779.612427,1232.999756 1772.739624,1235.946899 1765.081909,1239.033691 
	C1751.337402,1243.753296 1738.377808,1248.333130 1724.631348,1252.994873 
	C1712.387207,1256.368042 1700.881104,1259.500854 1689.484741,1262.990967 
	C1675.587036,1267.247314 1661.781494,1271.803955 1647.186035,1276.197998 
	C1634.317505,1280.204224 1622.198975,1284.243164 1609.333252,1288.304688 
	C1595.638794,1293.099365 1582.691406,1297.871582 1569.004150,1302.742432 
	C1564.697510,1304.326660 1561.130737,1305.812256 1556.827026,1307.403931 
	C1547.554443,1311.297974 1539.018799,1315.085938 1529.656982,1318.829102 
	C1516.562378,1324.550049 1504.294312,1330.315918 1491.321411,1336.132935 
	C1485.090576,1339.503540 1479.564331,1342.822876 1473.340820,1346.253052 
	C1465.781372,1350.300415 1458.919434,1354.237183 1451.387207,1358.316528 
	C1438.336060,1367.134155 1425.955322,1375.809082 1412.907227,1384.758057 
	C1398.711548,1397.961182 1385.183105,1410.890381 1371.218018,1424.031860 
	C1370.240967,1424.685791 1369.972046,1425.255493 1369.400757,1426.297119 
	C1359.545288,1440.214355 1350.263428,1453.787720 1340.543823,1467.870483 
	C1337.472168,1474.267334 1334.838257,1480.154663 1331.618164,1486.445801 
	C1328.477295,1494.445435 1325.922852,1502.041382 1322.923706,1510.243042 
	C1319.047241,1523.623047 1316.305664,1536.497803 1316.595459,1550.711670 
	C1316.604736,1564.631592 1317.721191,1577.550537 1321.969971,1590.780518 
	C1325.933838,1601.711426 1329.948975,1611.864990 1334.006836,1622.696533 
	C1335.866821,1626.448853 1337.684204,1629.523438 1339.700806,1633.247803 
	C1348.656372,1645.242432 1357.412842,1656.587524 1366.372803,1668.535522 
	C1369.051147,1671.424683 1371.526245,1673.710815 1374.257446,1676.618164 
	C1386.644531,1688.814087 1399.197632,1699.844971 1414.327026,1708.547607 
	C1426.098511,1715.051147 1437.581543,1720.936890 1449.611572,1727.304199 
	C1463.944092,1732.144531 1477.729370,1736.503418 1492.184204,1741.232178 
	C1501.161011,1743.778564 1509.468506,1745.955200 1518.119141,1748.829712 
	C1522.133667,1753.064453 1522.621826,1757.582520 1522.671387,1762.361572 
	C1522.760864,1770.972778 1523.075073,1779.581665 1523.050293,1789.086060 
	C1522.995239,1802.558228 1523.185669,1815.135986 1523.053345,1828.618896 
	C1522.677368,1837.975708 1522.864380,1846.438965 1522.461060,1854.873901 
	C1522.281738,1858.626831 1520.912964,1862.322876 1519.272461,1866.224609 
	C1509.652588,1866.840088 1500.844360,1867.275757 1491.582031,1867.422607 
	C1489.397217,1867.335815 1487.666626,1867.537842 1485.935913,1867.739868 
	C1475.262817,1867.572144 1464.589722,1867.404419 1452.090088,1867.249512 
	C1438.142090,1867.413086 1426.020630,1867.563965 1412.989502,1867.501099 
	C1399.410034,1867.456421 1386.740356,1867.625366 1373.153931,1867.560181 
	C1360.121826,1867.447632 1348.006592,1867.569336 1334.982422,1867.474731 
	C1321.411499,1867.419556 1308.749512,1867.580688 1296.087646,1867.741699 
z"/>
<path fill="#44C8E6" opacity="1.000000" stroke="none" 
	d="
M1088.355957,114.109375 
	C1091.854736,111.348831 1095.353516,108.588310 1099.220703,105.440353 
	C1105.034912,101.485435 1110.529541,97.989708 1115.914673,94.332611 
	C1122.943726,89.558998 1129.885864,84.657661 1137.437012,79.355370 
	C1137.462769,82.092377 1137.130249,85.339790 1136.330688,88.467804 
	C1134.125122,97.096085 1131.723999,105.674423 1128.906616,115.634682 
	C1126.156982,129.220306 1123.901123,141.443771 1121.212402,154.349945 
	C1119.862549,167.364334 1118.945557,179.696030 1117.917480,192.704239 
	C1117.911621,194.285233 1118.016724,195.189697 1118.011108,196.998688 
	C1118.140747,205.134415 1118.381348,212.365601 1118.468018,220.373871 
	C1118.935303,224.773514 1119.556274,228.396072 1120.087646,232.881866 
	C1122.277710,245.780350 1124.557617,257.815613 1126.750977,270.603760 
	C1127.774414,275.183197 1128.683350,279.082520 1130.037231,282.820801 
	C1132.607178,289.916687 1135.432129,296.920319 1138.148193,304.614960 
	C1138.794800,306.863495 1139.444336,308.459381 1140.122925,310.782959 
	C1146.419067,324.369476 1152.686035,337.228363 1159.165649,350.822723 
	C1165.591431,361.667450 1171.804565,371.776672 1178.166748,382.500244 
	C1179.560547,384.739746 1180.805298,386.364929 1182.220215,388.654541 
	C1191.459961,401.625214 1200.529419,413.931396 1209.868408,426.828064 
	C1212.126709,429.619843 1214.115601,431.821167 1216.203857,434.700562 
	C1224.057861,445.714264 1231.812256,456.049896 1239.753418,467.050781 
	C1245.104858,474.690338 1250.269287,481.664642 1255.550781,489.278351 
	C1257.061157,492.072296 1258.454590,494.226837 1259.952271,497.022583 
	C1262.005615,500.464813 1263.954712,503.265839 1265.998779,506.770050 
	C1270.567993,515.091064 1275.042358,522.708923 1279.214844,529.812744 
	C1281.168823,529.682251 1281.975220,529.870544 1282.432617,529.554321 
	C1284.054443,528.432922 1285.616699,527.206787 1287.095581,525.900330 
	C1298.141846,516.140869 1304.077637,503.096619 1309.397217,489.873566 
	C1312.448364,482.289368 1314.023560,474.111420 1316.702393,465.588989 
	C1318.161743,458.717285 1319.182129,452.457336 1320.535645,445.922791 
	C1321.295044,445.107178 1321.278687,444.580048 1321.072998,443.209656 
	C1321.485474,437.580170 1321.644409,432.807800 1321.958740,427.194214 
	C1324.524170,412.880066 1322.190918,399.486176 1321.506348,385.275665 
	C1320.588379,378.278839 1319.606445,372.072235 1318.413818,364.534180 
	C1324.530884,369.124237 1329.227783,372.648590 1333.963135,376.115173 
	C1334.001831,376.057434 1333.862915,376.053040 1333.999512,376.592712 
	C1334.745972,377.532532 1335.355835,377.932709 1336.228271,378.910736 
	C1339.599487,382.344086 1342.708252,385.199554 1345.977539,388.715607 
	C1355.444214,400.119629 1364.750366,410.863037 1374.204590,422.188110 
	C1375.941772,424.549438 1377.530884,426.329041 1379.392090,428.786713 
	C1387.939453,442.083862 1396.210083,454.705872 1404.492065,467.320465 
	C1407.521362,471.934418 1410.577515,476.530762 1413.566406,481.847229 
	C1417.028320,489.701935 1420.545166,496.844543 1424.157959,504.504272 
	C1424.807983,505.395935 1425.361938,505.770508 1425.797607,506.138367 
	C1425.679199,506.131714 1425.636841,506.364990 1425.689331,507.101562 
	C1430.591797,519.890198 1435.441650,531.942322 1440.238281,544.766296 
	C1444.110840,557.095642 1448.036621,568.653137 1451.923340,580.879639 
	C1452.101318,582.408630 1452.318237,583.268677 1452.492188,584.902832 
	C1453.000488,588.231689 1453.565430,590.783569 1454.100586,593.341675 
	C1456.228027,603.512634 1458.346313,613.685547 1460.347168,624.690247 
	C1461.663818,637.736023 1463.101074,649.949280 1464.390137,663.077271 
	C1464.264648,676.624939 1464.287476,689.257935 1464.123291,702.712952 
	C1462.245605,715.774109 1460.555054,728.013123 1458.564697,740.981445 
	C1456.267334,749.841187 1454.270020,757.971680 1451.862061,766.480957 
	C1451.387451,767.907715 1451.323364,768.955566 1450.908813,770.643677 
	C1450.509399,772.245239 1450.460327,773.206604 1449.834473,774.577637 
	C1443.184082,789.945312 1437.110474,804.903259 1430.539307,820.273193 
	C1424.659668,829.654968 1419.277344,838.624878 1413.314941,847.934753 
	C1410.488159,851.530029 1408.241699,854.785400 1405.439209,858.398132 
	C1398.726929,866.122253 1392.495972,873.428284 1386.442017,880.878296 
	C1382.739868,885.434082 1379.309448,890.210938 1375.117310,895.059326 
	C1373.698853,895.628601 1372.920166,896.027161 1371.517334,896.615845 
	C1358.513062,907.103699 1346.132568,917.401428 1333.099365,927.866577 
	C1328.895264,930.673645 1325.344116,933.313232 1321.109619,936.053711 
	C1312.252075,941.276001 1304.077759,946.397461 1295.161499,951.630310 
	C1293.781128,951.921326 1293.112793,952.031494 1292.508179,952.290405 
	C1273.020996,960.635681 1253.533691,968.981201 1234.073364,977.388611 
	C1232.901855,977.894775 1231.951294,978.912537 1230.227539,979.582886 
	C1227.028809,980.348938 1224.500732,981.224487 1221.316162,982.058838 
	C1219.803955,982.201721 1218.947998,982.385864 1217.582520,982.499390 
	C1216.644287,982.936951 1216.215698,983.445129 1215.006104,983.961609 
	C1212.652466,984.086853 1211.079590,984.203796 1209.841064,983.702942 
	C1214.601440,978.567932 1219.175659,974.185303 1223.425171,969.507507 
	C1234.396973,957.429932 1244.664307,944.769165 1251.950317,930.065674 
	C1267.553101,898.578857 1273.539307,865.614929 1268.383667,830.480347 
	C1264.918091,806.863159 1258.229004,784.450378 1247.579956,763.259216 
	C1232.080200,732.415588 1211.062744,705.376892 1187.255249,680.654053 
	C1169.035156,661.733215 1149.613159,643.964478 1130.601440,625.813599 
	C1123.393311,618.931885 1115.686157,612.573181 1108.470703,605.698730 
	C1093.783325,591.705505 1078.539795,578.190613 1064.945312,563.191650 
	C1055.448608,552.713745 1048.325195,540.087891 1040.094482,528.454834 
	C1039.277344,527.299866 1038.130981,526.377930 1035.673950,523.830750 
	C1036.499023,535.556030 1037.740356,545.119995 1037.707031,554.679626 
	C1037.660767,567.945496 1036.741211,581.212524 1036.039185,594.470703 
	C1035.407471,606.399902 1035.358643,618.431946 1033.663086,630.218750 
	C1029.071411,662.140015 1022.467712,693.637695 1009.158997,723.279907 
	C1001.340576,740.693787 991.498169,756.761047 977.243103,769.867920 
	C967.837219,778.516235 951.185364,782.598145 940.127686,769.270813 
	C937.196411,765.737854 934.105591,762.337219 929.740723,757.330261 
	C928.283875,759.575928 927.043457,761.557922 925.734985,763.493835 
	C914.697876,779.823303 905.525085,796.999146 899.869690,816.048828 
	C894.492981,834.159851 893.471558,852.559265 893.813965,871.265503 
	C894.212952,893.061462 900.547668,913.241150 910.408447,932.248230 
	C920.304077,951.322388 933.968689,967.583557 951.080505,980.818665 
	C951.857117,981.419312 951.559998,983.408081 950.997925,984.582764 
	C948.174866,984.134521 946.117065,983.853760 943.526367,983.109253 
	C935.458679,980.401184 927.923828,978.156799 919.903076,975.375305 
	C914.313782,972.950195 909.210266,971.062195 903.654785,968.680420 
	C896.858154,965.397766 890.497437,962.644714 884.173584,959.809387 
	C878.179260,957.121887 872.223694,954.348145 865.840942,951.075684 
	C856.920593,945.767212 848.410461,940.995422 839.517456,935.674744 
	C824.586060,923.611633 810.046936,912.085632 795.479614,900.595337 
	C793.155640,898.762268 790.705200,897.089539 788.084351,894.932312 
	C787.367188,894.099792 786.810242,893.809143 786.055359,892.990112 
	C780.717957,886.849670 775.509827,881.369385 770.113403,875.230713 
	C760.918640,862.271179 751.890137,849.986084 742.920654,837.657959 
	C740.598572,834.466370 738.461792,831.139893 736.149719,827.222107 
	C734.785706,824.304932 733.511780,822.041077 732.012573,819.095398 
	C725.859863,804.321533 719.932373,790.229492 713.931763,775.396973 
	C712.401611,770.524231 710.944763,766.392090 709.533081,761.488037 
	C707.822815,754.444275 706.067322,748.172363 704.332153,741.056519 
	C703.608337,737.381287 702.495789,734.589600 702.187012,731.711609 
	C701.130493,721.864624 700.356201,711.987366 699.631226,701.188110 
	C699.688293,687.468079 699.588440,674.681641 699.668457,661.031189 
	C700.600830,649.499695 701.353333,638.832153 702.620728,627.820801 
	C703.364868,626.302917 703.594238,625.128906 704.045288,623.188293 
	C706.045837,613.560669 707.824646,604.699646 709.825195,595.098755 
	C710.713562,590.891052 711.380127,587.423279 712.404663,583.295593 
	C715.938904,570.648926 719.115173,558.662170 722.801514,546.140930 
	C728.193604,532.401611 733.075684,519.196716 738.503296,505.554199 
	C742.619934,496.732697 746.191040,488.348785 750.126587,479.402771 
	C751.735901,476.022919 752.980896,473.205139 754.724121,470.005066 
	C755.608032,468.445892 755.993652,467.269043 756.890320,465.650787 
	C760.288269,460.001862 763.290100,454.854004 766.033752,449.572083 
	C769.674805,442.562622 773.114380,435.448547 777.183350,427.993469 
	C781.209167,421.773590 784.692261,415.939667 788.761475,409.779663 
	C793.813538,402.431549 798.279480,395.409515 803.336365,388.117126 
	C809.649292,382.829559 811.827881,374.377228 819.564941,370.791229 
	C820.543213,379.085602 821.017578,386.724457 822.424072,394.187714 
	C824.562805,405.536621 827.347778,416.763702 829.853394,428.832031 
	C834.409973,441.785339 838.971497,453.949127 843.620605,466.853760 
	C849.014099,480.412659 855.759277,492.297516 866.095886,502.471619 
	C867.245483,504.038910 868.271545,505.068542 869.538635,506.761932 
	C877.936523,518.179749 887.729675,527.125427 899.183716,534.283997 
	C899.082153,534.444763 899.511047,534.244263 900.175903,534.718689 
	C901.870483,535.518982 902.900208,535.844910 904.329956,536.750488 
	C906.684570,538.071167 908.639160,538.812134 911.070862,539.733948 
	C911.070862,532.125916 911.148621,525.567505 911.057007,519.011475 
	C910.715088,494.537933 910.229736,470.065979 910.004700,445.591553 
	C909.950439,439.694916 910.689148,433.790955 911.360718,427.194397 
	C911.705933,425.496185 911.753601,424.493927 912.211060,423.148376 
	C912.458557,421.112457 912.296326,419.419891 912.359009,416.975708 
	C913.917969,406.853912 915.252014,397.483673 917.016846,387.522095 
	C920.198669,374.570282 922.949707,362.209839 925.923889,349.129486 
	C930.703369,335.598297 935.259644,322.786957 940.347290,309.605286 
	C941.290344,307.147827 941.701904,305.060791 942.604248,302.595337 
	C943.439636,301.481506 943.784241,300.746124 944.067627,300.003601 
	C944.006348,299.996521 944.037415,300.115875 944.575439,299.683685 
	C949.512695,289.537933 953.911804,279.824341 958.886841,269.764679 
	C963.790283,262.370026 968.224792,255.384232 972.409302,248.251770 
	C975.406311,243.143341 978.068481,237.838455 981.298828,232.156250 
	C982.798218,229.929550 983.878723,228.167877 985.547485,226.179825 
	C989.565063,221.485901 992.986023,217.011902 996.425415,212.552139 
	C1004.927917,201.527344 1013.438904,190.509033 1022.556763,179.285156 
	C1030.758911,170.724121 1038.350708,162.366074 1046.455566,153.592117 
	C1051.304199,148.669067 1055.639648,144.161911 1060.598633,139.457306 
	C1070.266602,130.876373 1079.311279,122.492874 1088.355957,114.109375 
z"/>
<path fill="#8EEEF8" opacity="1.000000" stroke="none" 
	d="
M951.763062,984.750305 
	C951.559998,983.408081 951.857117,981.419312 951.080505,980.818665 
	C933.968689,967.583557 920.304077,951.322388 910.408447,932.248230 
	C900.547668,913.241150 894.212952,893.061462 893.813965,871.265503 
	C893.471558,852.559265 894.492981,834.159851 899.869690,816.048828 
	C905.525085,796.999146 914.697876,779.823303 925.734985,763.493835 
	C927.043457,761.557922 928.283875,759.575928 929.740723,757.330261 
	C934.105591,762.337219 937.196411,765.737854 940.127686,769.270813 
	C951.185364,782.598145 967.837219,778.516235 977.243103,769.867920 
	C991.498169,756.761047 1001.340576,740.693787 1009.158997,723.279907 
	C1022.467712,693.637695 1029.071411,662.140015 1033.663086,630.218750 
	C1035.358643,618.431946 1035.407471,606.399902 1036.039185,594.470703 
	C1036.741211,581.212524 1037.660767,567.945496 1037.707031,554.679626 
	C1037.740356,545.119995 1036.499023,535.556030 1035.673950,523.830750 
	C1038.130981,526.377930 1039.277344,527.299866 1040.094482,528.454834 
	C1048.325195,540.087891 1055.448608,552.713745 1064.945312,563.191650 
	C1078.539795,578.190613 1093.783325,591.705505 1108.470703,605.698730 
	C1115.686157,612.573181 1123.393311,618.931885 1130.601440,625.813599 
	C1149.613159,643.964478 1169.035156,661.733215 1187.255249,680.654053 
	C1211.062744,705.376892 1232.080200,732.415588 1247.579956,763.259216 
	C1258.229004,784.450378 1264.918091,806.863159 1268.383667,830.480347 
	C1273.539307,865.614929 1267.553101,898.578857 1251.950317,930.065674 
	C1244.664307,944.769165 1234.396973,957.429932 1223.425171,969.507507 
	C1219.175659,974.185303 1214.601440,978.567932 1209.220215,984.024414 
	C1198.165405,987.950378 1188.065674,990.936890 1177.114624,993.915955 
	C1164.140869,995.926270 1152.018677,997.944031 1138.973877,999.946899 
	C1115.911499,1000.641113 1093.771240,1001.344177 1071.631836,1002.065613 
	C1068.323486,1002.173462 1065.018066,1002.367065 1060.834961,1002.374878 
	C1047.322144,1001.523010 1034.685425,1000.817200 1021.500122,999.531860 
	C1008.542542,996.835144 996.133606,994.717957 982.931213,992.445129 
	C972.012878,989.776428 961.887939,987.263367 951.763062,984.750305 
z"/>
</svg>
