<svg width="1160" height="410" viewBox="0 0 1160 410" xmlns="http://www.w3.org/2000/svg" font-family="system-ui, -apple-system, Segoe UI, Roboto, Helvetica, Arial, sans-serif" role="img" aria-label="durin workflow canvas: brainstorming">
<defs><marker id="a" viewBox="0 0 10 10" refX="9" refY="5" markerWidth="6.5" markerHeight="6.5" orient="auto-start-reverse"><path d="M0,0 L10,5 L0,10 z" fill="#e3e5e8"/></marker></defs>
<rect x="0.5" y="0.5" width="1159" height="409" rx="14" fill="#ffffff" stroke="#e3e5e8"/>
<text x="26" y="34" font-size="14" font-weight="700" fill="#151719">Workflow · brainstorming</text>
<rect x="250" y="20" width="94" height="24" rx="7" fill="#ffffff" stroke="#e3e5e8"/>
<text x="297" y="36" font-size="12" text-anchor="middle" fill="#6c7175">+ work</text>
<rect x="354" y="20" width="94" height="24" rx="7" fill="#ffffff" stroke="#e3e5e8"/>
<text x="401" y="36" font-size="12" text-anchor="middle" fill="#6c7175">+ parallel</text>
<rect x="458" y="20" width="94" height="24" rx="7" fill="#ffffff" stroke="#e3e5e8"/>
<text x="505" y="36" font-size="12" text-anchor="middle" fill="#6c7175">+ sub-flow</text>
<text x="1134" y="36" font-size="12" text-anchor="end" fill="#6c7175">Auto-improve · Manual</text>
<line x1="16" y1="56" x2="1144" y2="56" stroke="#eceef0"/>
<circle cx="42" cy="82" r="1" fill="#eef0f2"/><circle cx="42" cy="108" r="1" fill="#eef0f2"/><circle cx="42" cy="134" r="1" fill="#eef0f2"/><circle cx="42" cy="160" r="1" fill="#eef0f2"/><circle cx="42" cy="186" r="1" fill="#eef0f2"/><circle cx="42" cy="212" r="1" fill="#eef0f2"/><circle cx="42" cy="238" r="1" fill="#eef0f2"/><circle cx="42" cy="264" r="1" fill="#eef0f2"/><circle cx="42" cy="290" r="1" fill="#eef0f2"/><circle cx="42" cy="316" r="1" fill="#eef0f2"/><circle cx="42" cy="342" r="1" fill="#eef0f2"/><circle cx="42" cy="368" r="1" fill="#eef0f2"/><circle cx="68" cy="82" r="1" fill="#eef0f2"/><circle cx="68" cy="108" r="1" fill="#eef0f2"/><circle cx="68" cy="134" r="1" fill="#eef0f2"/><circle cx="68" cy="160" r="1" fill="#eef0f2"/><circle cx="68" cy="186" r="1" fill="#eef0f2"/><circle cx="68" cy="212" r="1" fill="#eef0f2"/><circle cx="68" cy="238" r="1" fill="#eef0f2"/><circle cx="68" cy="264" r="1" fill="#eef0f2"/><circle cx="68" cy="290" r="1" fill="#eef0f2"/><circle cx="68" cy="316" r="1" fill="#eef0f2"/><circle cx="68" cy="342" r="1" fill="#eef0f2"/><circle cx="68" cy="368" r="1" fill="#eef0f2"/><circle cx="94" cy="82" r="1" fill="#eef0f2"/><circle cx="94" cy="108" r="1" fill="#eef0f2"/><circle cx="94" cy="134" r="1" fill="#eef0f2"/><circle cx="94" cy="160" r="1" fill="#eef0f2"/><circle cx="94" cy="186" r="1" fill="#eef0f2"/><circle cx="94" cy="212" r="1" fill="#eef0f2"/><circle cx="94" cy="238" r="1" fill="#eef0f2"/><circle cx="94" cy="264" r="1" fill="#eef0f2"/><circle cx="94" cy="290" r="1" fill="#eef0f2"/><circle cx="94" cy="316" r="1" fill="#eef0f2"/><circle cx="94" cy="342" r="1" fill="#eef0f2"/><circle cx="94" cy="368" r="1" fill="#eef0f2"/><circle cx="120" cy="82" r="1" fill="#eef0f2"/><circle cx="120" cy="108" r="1" fill="#eef0f2"/><circle cx="120" cy="134" r="1" fill="#eef0f2"/><circle cx="120" cy="160" r="1" fill="#eef0f2"/><circle cx="120" cy="186" r="1" fill="#eef0f2"/><circle cx="120" cy="212" r="1" fill="#eef0f2"/><circle cx="120" cy="238" r="1" fill="#eef0f2"/><circle cx="120" cy="264" r="1" fill="#eef0f2"/><circle cx="120" cy="290" r="1" fill="#eef0f2"/><circle cx="120" cy="316" r="1" fill="#eef0f2"/><circle cx="120" cy="342" r="1" fill="#eef0f2"/><circle cx="120" cy="368" r="1" fill="#eef0f2"/><circle cx="146" cy="82" r="1" fill="#eef0f2"/><circle cx="146" cy="108" r="1" fill="#eef0f2"/><circle cx="146" cy="134" r="1" fill="#eef0f2"/><circle cx="146" cy="160" r="1" fill="#eef0f2"/><circle cx="146" cy="186" r="1" fill="#eef0f2"/><circle cx="146" cy="212" r="1" fill="#eef0f2"/><circle cx="146" cy="238" r="1" fill="#eef0f2"/><circle cx="146" cy="264" r="1" fill="#eef0f2"/><circle cx="146" cy="290" r="1" fill="#eef0f2"/><circle cx="146" cy="316" r="1" fill="#eef0f2"/><circle cx="146" cy="342" r="1" fill="#eef0f2"/><circle cx="146" cy="368" r="1" fill="#eef0f2"/><circle cx="172" cy="82" r="1" fill="#eef0f2"/><circle cx="172" cy="108" r="1" fill="#eef0f2"/><circle cx="172" cy="134" r="1" fill="#eef0f2"/><circle cx="172" cy="160" r="1" fill="#eef0f2"/><circle cx="172" cy="186" r="1" fill="#eef0f2"/><circle cx="172" cy="212" r="1" fill="#eef0f2"/><circle cx="172" cy="238" r="1" fill="#eef0f2"/><circle cx="172" cy="264" r="1" fill="#eef0f2"/><circle cx="172" cy="290" r="1" fill="#eef0f2"/><circle cx="172" cy="316" r="1" fill="#eef0f2"/><circle cx="172" cy="342" r="1" fill="#eef0f2"/><circle cx="172" cy="368" r="1" fill="#eef0f2"/><circle cx="198" cy="82" r="1" fill="#eef0f2"/><circle cx="198" cy="108" r="1" fill="#eef0f2"/><circle cx="198" cy="134" r="1" fill="#eef0f2"/><circle cx="198" cy="160" r="1" fill="#eef0f2"/><circle cx="198" cy="186" r="1" fill="#eef0f2"/><circle cx="198" cy="212" r="1" fill="#eef0f2"/><circle cx="198" cy="238" r="1" fill="#eef0f2"/><circle cx="198" cy="264" r="1" fill="#eef0f2"/><circle cx="198" cy="290" r="1" fill="#eef0f2"/><circle cx="198" cy="316" r="1" fill="#eef0f2"/><circle cx="198" cy="342" r="1" fill="#eef0f2"/><circle cx="198" cy="368" r="1" fill="#eef0f2"/><circle cx="224" cy="82" r="1" fill="#eef0f2"/><circle cx="224" cy="108" r="1" fill="#eef0f2"/><circle cx="224" cy="134" r="1" fill="#eef0f2"/><circle cx="224" cy="160" r="1" fill="#eef0f2"/><circle cx="224" cy="186" r="1" fill="#eef0f2"/><circle cx="224" cy="212" r="1" fill="#eef0f2"/><circle cx="224" cy="238" r="1" fill="#eef0f2"/><circle cx="224" cy="264" r="1" fill="#eef0f2"/><circle cx="224" cy="290" r="1" fill="#eef0f2"/><circle cx="224" cy="316" r="1" fill="#eef0f2"/><circle cx="224" cy="342" r="1" fill="#eef0f2"/><circle cx="224" cy="368" r="1" fill="#eef0f2"/><circle cx="250" cy="82" r="1" fill="#eef0f2"/><circle cx="250" cy="108" r="1" fill="#eef0f2"/><circle cx="250" cy="134" r="1" fill="#eef0f2"/><circle cx="250" cy="160" r="1" fill="#eef0f2"/><circle cx="250" cy="186" r="1" fill="#eef0f2"/><circle cx="250" cy="212" r="1" fill="#eef0f2"/><circle cx="250" cy="238" r="1" fill="#eef0f2"/><circle cx="250" cy="264" r="1" fill="#eef0f2"/><circle cx="250" cy="290" r="1" fill="#eef0f2"/><circle cx="250" cy="316" r="1" fill="#eef0f2"/><circle cx="250" cy="342" r="1" fill="#eef0f2"/><circle cx="250" cy="368" r="1" fill="#eef0f2"/><circle cx="276" cy="82" r="1" fill="#eef0f2"/><circle cx="276" cy="108" r="1" fill="#eef0f2"/><circle cx="276" cy="134" r="1" fill="#eef0f2"/><circle cx="276" cy="160" r="1" fill="#eef0f2"/><circle cx="276" cy="186" r="1" fill="#eef0f2"/><circle cx="276" cy="212" r="1" fill="#eef0f2"/><circle cx="276" cy="238" r="1" fill="#eef0f2"/><circle cx="276" cy="264" r="1" fill="#eef0f2"/><circle cx="276" cy="290" r="1" fill="#eef0f2"/><circle cx="276" cy="316" r="1" fill="#eef0f2"/><circle cx="276" cy="342" r="1" fill="#eef0f2"/><circle cx="276" cy="368" r="1" fill="#eef0f2"/><circle cx="302" cy="82" r="1" fill="#eef0f2"/><circle cx="302" cy="108" r="1" fill="#eef0f2"/><circle cx="302" cy="134" r="1" fill="#eef0f2"/><circle cx="302" cy="160" r="1" fill="#eef0f2"/><circle cx="302" cy="186" r="1" fill="#eef0f2"/><circle cx="302" cy="212" r="1" fill="#eef0f2"/><circle cx="302" cy="238" r="1" fill="#eef0f2"/><circle cx="302" cy="264" r="1" fill="#eef0f2"/><circle cx="302" cy="290" r="1" fill="#eef0f2"/><circle cx="302" cy="316" r="1" fill="#eef0f2"/><circle cx="302" cy="342" r="1" fill="#eef0f2"/><circle cx="302" cy="368" r="1" fill="#eef0f2"/><circle cx="328" cy="82" r="1" fill="#eef0f2"/><circle cx="328" cy="108" r="1" fill="#eef0f2"/><circle cx="328" cy="134" r="1" fill="#eef0f2"/><circle cx="328" cy="160" r="1" fill="#eef0f2"/><circle cx="328" cy="186" r="1" fill="#eef0f2"/><circle cx="328" cy="212" r="1" fill="#eef0f2"/><circle cx="328" cy="238" r="1" fill="#eef0f2"/><circle cx="328" cy="264" r="1" fill="#eef0f2"/><circle cx="328" cy="290" r="1" fill="#eef0f2"/><circle cx="328" cy="316" r="1" fill="#eef0f2"/><circle cx="328" cy="342" r="1" fill="#eef0f2"/><circle cx="328" cy="368" r="1" fill="#eef0f2"/><circle cx="354" cy="82" r="1" fill="#eef0f2"/><circle cx="354" cy="108" r="1" fill="#eef0f2"/><circle cx="354" cy="134" r="1" fill="#eef0f2"/><circle cx="354" cy="160" r="1" fill="#eef0f2"/><circle cx="354" cy="186" r="1" fill="#eef0f2"/><circle cx="354" cy="212" r="1" fill="#eef0f2"/><circle cx="354" cy="238" r="1" fill="#eef0f2"/><circle cx="354" cy="264" r="1" fill="#eef0f2"/><circle cx="354" cy="290" r="1" fill="#eef0f2"/><circle cx="354" cy="316" r="1" fill="#eef0f2"/><circle cx="354" cy="342" r="1" fill="#eef0f2"/><circle cx="354" cy="368" r="1" fill="#eef0f2"/><circle cx="380" cy="82" r="1" fill="#eef0f2"/><circle cx="380" cy="108" r="1" fill="#eef0f2"/><circle cx="380" cy="134" r="1" fill="#eef0f2"/><circle cx="380" cy="160" r="1" fill="#eef0f2"/><circle cx="380" cy="186" r="1" fill="#eef0f2"/><circle cx="380" cy="212" r="1" fill="#eef0f2"/><circle cx="380" cy="238" r="1" fill="#eef0f2"/><circle cx="380" cy="264" r="1" fill="#eef0f2"/><circle cx="380" cy="290" r="1" fill="#eef0f2"/><circle cx="380" cy="316" r="1" fill="#eef0f2"/><circle cx="380" cy="342" r="1" fill="#eef0f2"/><circle cx="380" cy="368" r="1" fill="#eef0f2"/><circle cx="406" cy="82" r="1" fill="#eef0f2"/><circle cx="406" cy="108" r="1" fill="#eef0f2"/><circle cx="406" cy="134" r="1" fill="#eef0f2"/><circle cx="406" cy="160" r="1" fill="#eef0f2"/><circle cx="406" cy="186" r="1" fill="#eef0f2"/><circle cx="406" cy="212" r="1" fill="#eef0f2"/><circle cx="406" cy="238" r="1" fill="#eef0f2"/><circle cx="406" cy="264" r="1" fill="#eef0f2"/><circle cx="406" cy="290" r="1" fill="#eef0f2"/><circle cx="406" cy="316" r="1" fill="#eef0f2"/><circle cx="406" cy="342" r="1" fill="#eef0f2"/><circle cx="406" cy="368" r="1" fill="#eef0f2"/><circle cx="432" cy="82" r="1" fill="#eef0f2"/><circle cx="432" cy="108" r="1" fill="#eef0f2"/><circle cx="432" cy="134" r="1" fill="#eef0f2"/><circle cx="432" cy="160" r="1" fill="#eef0f2"/><circle cx="432" cy="186" r="1" fill="#eef0f2"/><circle cx="432" cy="212" r="1" fill="#eef0f2"/><circle cx="432" cy="238" r="1" fill="#eef0f2"/><circle cx="432" cy="264" r="1" fill="#eef0f2"/><circle cx="432" cy="290" r="1" fill="#eef0f2"/><circle cx="432" cy="316" r="1" fill="#eef0f2"/><circle cx="432" cy="342" r="1" fill="#eef0f2"/><circle cx="432" cy="368" r="1" fill="#eef0f2"/><circle cx="458" cy="82" r="1" fill="#eef0f2"/><circle cx="458" cy="108" r="1" fill="#eef0f2"/><circle cx="458" cy="134" r="1" fill="#eef0f2"/><circle cx="458" cy="160" r="1" fill="#eef0f2"/><circle cx="458" cy="186" r="1" fill="#eef0f2"/><circle cx="458" cy="212" r="1" fill="#eef0f2"/><circle cx="458" cy="238" r="1" fill="#eef0f2"/><circle cx="458" cy="264" r="1" fill="#eef0f2"/><circle cx="458" cy="290" r="1" fill="#eef0f2"/><circle cx="458" cy="316" r="1" fill="#eef0f2"/><circle cx="458" cy="342" r="1" fill="#eef0f2"/><circle cx="458" cy="368" r="1" fill="#eef0f2"/><circle cx="484" cy="82" r="1" fill="#eef0f2"/><circle cx="484" cy="108" r="1" fill="#eef0f2"/><circle cx="484" cy="134" r="1" fill="#eef0f2"/><circle cx="484" cy="160" r="1" fill="#eef0f2"/><circle cx="484" cy="186" r="1" fill="#eef0f2"/><circle cx="484" cy="212" r="1" fill="#eef0f2"/><circle cx="484" cy="238" r="1" fill="#eef0f2"/><circle cx="484" cy="264" r="1" fill="#eef0f2"/><circle cx="484" cy="290" r="1" fill="#eef0f2"/><circle cx="484" cy="316" r="1" fill="#eef0f2"/><circle cx="484" cy="342" r="1" fill="#eef0f2"/><circle cx="484" cy="368" r="1" fill="#eef0f2"/><circle cx="510" cy="82" r="1" fill="#eef0f2"/><circle cx="510" cy="108" r="1" fill="#eef0f2"/><circle cx="510" cy="134" r="1" fill="#eef0f2"/><circle cx="510" cy="160" r="1" fill="#eef0f2"/><circle cx="510" cy="186" r="1" fill="#eef0f2"/><circle cx="510" cy="212" r="1" fill="#eef0f2"/><circle cx="510" cy="238" r="1" fill="#eef0f2"/><circle cx="510" cy="264" r="1" fill="#eef0f2"/><circle cx="510" cy="290" r="1" fill="#eef0f2"/><circle cx="510" cy="316" r="1" fill="#eef0f2"/><circle cx="510" cy="342" r="1" fill="#eef0f2"/><circle cx="510" cy="368" r="1" fill="#eef0f2"/><circle cx="536" cy="82" r="1" fill="#eef0f2"/><circle cx="536" cy="108" r="1" fill="#eef0f2"/><circle cx="536" cy="134" r="1" fill="#eef0f2"/><circle cx="536" cy="160" r="1" fill="#eef0f2"/><circle cx="536" cy="186" r="1" fill="#eef0f2"/><circle cx="536" cy="212" r="1" fill="#eef0f2"/><circle cx="536" cy="238" r="1" fill="#eef0f2"/><circle cx="536" cy="264" r="1" fill="#eef0f2"/><circle cx="536" cy="290" r="1" fill="#eef0f2"/><circle cx="536" cy="316" r="1" fill="#eef0f2"/><circle cx="536" cy="342" r="1" fill="#eef0f2"/><circle cx="536" cy="368" r="1" fill="#eef0f2"/><circle cx="562" cy="82" r="1" fill="#eef0f2"/><circle cx="562" cy="108" r="1" fill="#eef0f2"/><circle cx="562" cy="134" r="1" fill="#eef0f2"/><circle cx="562" cy="160" r="1" fill="#eef0f2"/><circle cx="562" cy="186" r="1" fill="#eef0f2"/><circle cx="562" cy="212" r="1" fill="#eef0f2"/><circle cx="562" cy="238" r="1" fill="#eef0f2"/><circle cx="562" cy="264" r="1" fill="#eef0f2"/><circle cx="562" cy="290" r="1" fill="#eef0f2"/><circle cx="562" cy="316" r="1" fill="#eef0f2"/><circle cx="562" cy="342" r="1" fill="#eef0f2"/><circle cx="562" cy="368" r="1" fill="#eef0f2"/><circle cx="588" cy="82" r="1" fill="#eef0f2"/><circle cx="588" cy="108" r="1" fill="#eef0f2"/><circle cx="588" cy="134" r="1" fill="#eef0f2"/><circle cx="588" cy="160" r="1" fill="#eef0f2"/><circle cx="588" cy="186" r="1" fill="#eef0f2"/><circle cx="588" cy="212" r="1" fill="#eef0f2"/><circle cx="588" cy="238" r="1" fill="#eef0f2"/><circle cx="588" cy="264" r="1" fill="#eef0f2"/><circle cx="588" cy="290" r="1" fill="#eef0f2"/><circle cx="588" cy="316" r="1" fill="#eef0f2"/><circle cx="588" cy="342" r="1" fill="#eef0f2"/><circle cx="588" cy="368" r="1" fill="#eef0f2"/><circle cx="614" cy="82" r="1" fill="#eef0f2"/><circle cx="614" cy="108" r="1" fill="#eef0f2"/><circle cx="614" cy="134" r="1" fill="#eef0f2"/><circle cx="614" cy="160" r="1" fill="#eef0f2"/><circle cx="614" cy="186" r="1" fill="#eef0f2"/><circle cx="614" cy="212" r="1" fill="#eef0f2"/><circle cx="614" cy="238" r="1" fill="#eef0f2"/><circle cx="614" cy="264" r="1" fill="#eef0f2"/><circle cx="614" cy="290" r="1" fill="#eef0f2"/><circle cx="614" cy="316" r="1" fill="#eef0f2"/><circle cx="614" cy="342" r="1" fill="#eef0f2"/><circle cx="614" cy="368" r="1" fill="#eef0f2"/><circle cx="640" cy="82" r="1" fill="#eef0f2"/><circle cx="640" cy="108" r="1" fill="#eef0f2"/><circle cx="640" cy="134" r="1" fill="#eef0f2"/><circle cx="640" cy="160" r="1" fill="#eef0f2"/><circle cx="640" cy="186" r="1" fill="#eef0f2"/><circle cx="640" cy="212" r="1" fill="#eef0f2"/><circle cx="640" cy="238" r="1" fill="#eef0f2"/><circle cx="640" cy="264" r="1" fill="#eef0f2"/><circle cx="640" cy="290" r="1" fill="#eef0f2"/><circle cx="640" cy="316" r="1" fill="#eef0f2"/><circle cx="640" cy="342" r="1" fill="#eef0f2"/><circle cx="640" cy="368" r="1" fill="#eef0f2"/><circle cx="666" cy="82" r="1" fill="#eef0f2"/><circle cx="666" cy="108" r="1" fill="#eef0f2"/><circle cx="666" cy="134" r="1" fill="#eef0f2"/><circle cx="666" cy="160" r="1" fill="#eef0f2"/><circle cx="666" cy="186" r="1" fill="#eef0f2"/><circle cx="666" cy="212" r="1" fill="#eef0f2"/><circle cx="666" cy="238" r="1" fill="#eef0f2"/><circle cx="666" cy="264" r="1" fill="#eef0f2"/><circle cx="666" cy="290" r="1" fill="#eef0f2"/><circle cx="666" cy="316" r="1" fill="#eef0f2"/><circle cx="666" cy="342" r="1" fill="#eef0f2"/><circle cx="666" cy="368" r="1" fill="#eef0f2"/><circle cx="692" cy="82" r="1" fill="#eef0f2"/><circle cx="692" cy="108" r="1" fill="#eef0f2"/><circle cx="692" cy="134" r="1" fill="#eef0f2"/><circle cx="692" cy="160" r="1" fill="#eef0f2"/><circle cx="692" cy="186" r="1" fill="#eef0f2"/><circle cx="692" cy="212" r="1" fill="#eef0f2"/><circle cx="692" cy="238" r="1" fill="#eef0f2"/><circle cx="692" cy="264" r="1" fill="#eef0f2"/><circle cx="692" cy="290" r="1" fill="#eef0f2"/><circle cx="692" cy="316" r="1" fill="#eef0f2"/><circle cx="692" cy="342" r="1" fill="#eef0f2"/><circle cx="692" cy="368" r="1" fill="#eef0f2"/><circle cx="718" cy="82" r="1" fill="#eef0f2"/><circle cx="718" cy="108" r="1" fill="#eef0f2"/><circle cx="718" cy="134" r="1" fill="#eef0f2"/><circle cx="718" cy="160" r="1" fill="#eef0f2"/><circle cx="718" cy="186" r="1" fill="#eef0f2"/><circle cx="718" cy="212" r="1" fill="#eef0f2"/><circle cx="718" cy="238" r="1" fill="#eef0f2"/><circle cx="718" cy="264" r="1" fill="#eef0f2"/><circle cx="718" cy="290" r="1" fill="#eef0f2"/><circle cx="718" cy="316" r="1" fill="#eef0f2"/><circle cx="718" cy="342" r="1" fill="#eef0f2"/><circle cx="718" cy="368" r="1" fill="#eef0f2"/><circle cx="744" cy="82" r="1" fill="#eef0f2"/><circle cx="744" cy="108" r="1" fill="#eef0f2"/><circle cx="744" cy="134" r="1" fill="#eef0f2"/><circle cx="744" cy="160" r="1" fill="#eef0f2"/><circle cx="744" cy="186" r="1" fill="#eef0f2"/><circle cx="744" cy="212" r="1" fill="#eef0f2"/><circle cx="744" cy="238" r="1" fill="#eef0f2"/><circle cx="744" cy="264" r="1" fill="#eef0f2"/><circle cx="744" cy="290" r="1" fill="#eef0f2"/><circle cx="744" cy="316" r="1" fill="#eef0f2"/><circle cx="744" cy="342" r="1" fill="#eef0f2"/><circle cx="744" cy="368" r="1" fill="#eef0f2"/><circle cx="770" cy="82" r="1" fill="#eef0f2"/><circle cx="770" cy="108" r="1" fill="#eef0f2"/><circle cx="770" cy="134" r="1" fill="#eef0f2"/><circle cx="770" cy="160" r="1" fill="#eef0f2"/><circle cx="770" cy="186" r="1" fill="#eef0f2"/><circle cx="770" cy="212" r="1" fill="#eef0f2"/><circle cx="770" cy="238" r="1" fill="#eef0f2"/><circle cx="770" cy="264" r="1" fill="#eef0f2"/><circle cx="770" cy="290" r="1" fill="#eef0f2"/><circle cx="770" cy="316" r="1" fill="#eef0f2"/><circle cx="770" cy="342" r="1" fill="#eef0f2"/><circle cx="770" cy="368" r="1" fill="#eef0f2"/><circle cx="796" cy="82" r="1" fill="#eef0f2"/><circle cx="796" cy="108" r="1" fill="#eef0f2"/><circle cx="796" cy="134" r="1" fill="#eef0f2"/><circle cx="796" cy="160" r="1" fill="#eef0f2"/><circle cx="796" cy="186" r="1" fill="#eef0f2"/><circle cx="796" cy="212" r="1" fill="#eef0f2"/><circle cx="796" cy="238" r="1" fill="#eef0f2"/><circle cx="796" cy="264" r="1" fill="#eef0f2"/><circle cx="796" cy="290" r="1" fill="#eef0f2"/><circle cx="796" cy="316" r="1" fill="#eef0f2"/><circle cx="796" cy="342" r="1" fill="#eef0f2"/><circle cx="796" cy="368" r="1" fill="#eef0f2"/><circle cx="822" cy="82" r="1" fill="#eef0f2"/><circle cx="822" cy="108" r="1" fill="#eef0f2"/><circle cx="822" cy="134" r="1" fill="#eef0f2"/><circle cx="822" cy="160" r="1" fill="#eef0f2"/><circle cx="822" cy="186" r="1" fill="#eef0f2"/><circle cx="822" cy="212" r="1" fill="#eef0f2"/><circle cx="822" cy="238" r="1" fill="#eef0f2"/><circle cx="822" cy="264" r="1" fill="#eef0f2"/><circle cx="822" cy="290" r="1" fill="#eef0f2"/><circle cx="822" cy="316" r="1" fill="#eef0f2"/><circle cx="822" cy="342" r="1" fill="#eef0f2"/><circle cx="822" cy="368" r="1" fill="#eef0f2"/><circle cx="848" cy="82" r="1" fill="#eef0f2"/><circle cx="848" cy="108" r="1" fill="#eef0f2"/><circle cx="848" cy="134" r="1" fill="#eef0f2"/><circle cx="848" cy="160" r="1" fill="#eef0f2"/><circle cx="848" cy="186" r="1" fill="#eef0f2"/><circle cx="848" cy="212" r="1" fill="#eef0f2"/><circle cx="848" cy="238" r="1" fill="#eef0f2"/><circle cx="848" cy="264" r="1" fill="#eef0f2"/><circle cx="848" cy="290" r="1" fill="#eef0f2"/><circle cx="848" cy="316" r="1" fill="#eef0f2"/><circle cx="848" cy="342" r="1" fill="#eef0f2"/><circle cx="848" cy="368" r="1" fill="#eef0f2"/><circle cx="874" cy="82" r="1" fill="#eef0f2"/><circle cx="874" cy="108" r="1" fill="#eef0f2"/><circle cx="874" cy="134" r="1" fill="#eef0f2"/><circle cx="874" cy="160" r="1" fill="#eef0f2"/><circle cx="874" cy="186" r="1" fill="#eef0f2"/><circle cx="874" cy="212" r="1" fill="#eef0f2"/><circle cx="874" cy="238" r="1" fill="#eef0f2"/><circle cx="874" cy="264" r="1" fill="#eef0f2"/><circle cx="874" cy="290" r="1" fill="#eef0f2"/><circle cx="874" cy="316" r="1" fill="#eef0f2"/><circle cx="874" cy="342" r="1" fill="#eef0f2"/><circle cx="874" cy="368" r="1" fill="#eef0f2"/><circle cx="900" cy="82" r="1" fill="#eef0f2"/><circle cx="900" cy="108" r="1" fill="#eef0f2"/><circle cx="900" cy="134" r="1" fill="#eef0f2"/><circle cx="900" cy="160" r="1" fill="#eef0f2"/><circle cx="900" cy="186" r="1" fill="#eef0f2"/><circle cx="900" cy="212" r="1" fill="#eef0f2"/><circle cx="900" cy="238" r="1" fill="#eef0f2"/><circle cx="900" cy="264" r="1" fill="#eef0f2"/><circle cx="900" cy="290" r="1" fill="#eef0f2"/><circle cx="900" cy="316" r="1" fill="#eef0f2"/><circle cx="900" cy="342" r="1" fill="#eef0f2"/><circle cx="900" cy="368" r="1" fill="#eef0f2"/><circle cx="926" cy="82" r="1" fill="#eef0f2"/><circle cx="926" cy="108" r="1" fill="#eef0f2"/><circle cx="926" cy="134" r="1" fill="#eef0f2"/><circle cx="926" cy="160" r="1" fill="#eef0f2"/><circle cx="926" cy="186" r="1" fill="#eef0f2"/><circle cx="926" cy="212" r="1" fill="#eef0f2"/><circle cx="926" cy="238" r="1" fill="#eef0f2"/><circle cx="926" cy="264" r="1" fill="#eef0f2"/><circle cx="926" cy="290" r="1" fill="#eef0f2"/><circle cx="926" cy="316" r="1" fill="#eef0f2"/><circle cx="926" cy="342" r="1" fill="#eef0f2"/><circle cx="926" cy="368" r="1" fill="#eef0f2"/><circle cx="952" cy="82" r="1" fill="#eef0f2"/><circle cx="952" cy="108" r="1" fill="#eef0f2"/><circle cx="952" cy="134" r="1" fill="#eef0f2"/><circle cx="952" cy="160" r="1" fill="#eef0f2"/><circle cx="952" cy="186" r="1" fill="#eef0f2"/><circle cx="952" cy="212" r="1" fill="#eef0f2"/><circle cx="952" cy="238" r="1" fill="#eef0f2"/><circle cx="952" cy="264" r="1" fill="#eef0f2"/><circle cx="952" cy="290" r="1" fill="#eef0f2"/><circle cx="952" cy="316" r="1" fill="#eef0f2"/><circle cx="952" cy="342" r="1" fill="#eef0f2"/><circle cx="952" cy="368" r="1" fill="#eef0f2"/><circle cx="978" cy="82" r="1" fill="#eef0f2"/><circle cx="978" cy="108" r="1" fill="#eef0f2"/><circle cx="978" cy="134" r="1" fill="#eef0f2"/><circle cx="978" cy="160" r="1" fill="#eef0f2"/><circle cx="978" cy="186" r="1" fill="#eef0f2"/><circle cx="978" cy="212" r="1" fill="#eef0f2"/><circle cx="978" cy="238" r="1" fill="#eef0f2"/><circle cx="978" cy="264" r="1" fill="#eef0f2"/><circle cx="978" cy="290" r="1" fill="#eef0f2"/><circle cx="978" cy="316" r="1" fill="#eef0f2"/><circle cx="978" cy="342" r="1" fill="#eef0f2"/><circle cx="978" cy="368" r="1" fill="#eef0f2"/><circle cx="1004" cy="82" r="1" fill="#eef0f2"/><circle cx="1004" cy="108" r="1" fill="#eef0f2"/><circle cx="1004" cy="134" r="1" fill="#eef0f2"/><circle cx="1004" cy="160" r="1" fill="#eef0f2"/><circle cx="1004" cy="186" r="1" fill="#eef0f2"/><circle cx="1004" cy="212" r="1" fill="#eef0f2"/><circle cx="1004" cy="238" r="1" fill="#eef0f2"/><circle cx="1004" cy="264" r="1" fill="#eef0f2"/><circle cx="1004" cy="290" r="1" fill="#eef0f2"/><circle cx="1004" cy="316" r="1" fill="#eef0f2"/><circle cx="1004" cy="342" r="1" fill="#eef0f2"/><circle cx="1004" cy="368" r="1" fill="#eef0f2"/><circle cx="1030" cy="82" r="1" fill="#eef0f2"/><circle cx="1030" cy="108" r="1" fill="#eef0f2"/><circle cx="1030" cy="134" r="1" fill="#eef0f2"/><circle cx="1030" cy="160" r="1" fill="#eef0f2"/><circle cx="1030" cy="186" r="1" fill="#eef0f2"/><circle cx="1030" cy="212" r="1" fill="#eef0f2"/><circle cx="1030" cy="238" r="1" fill="#eef0f2"/><circle cx="1030" cy="264" r="1" fill="#eef0f2"/><circle cx="1030" cy="290" r="1" fill="#eef0f2"/><circle cx="1030" cy="316" r="1" fill="#eef0f2"/><circle cx="1030" cy="342" r="1" fill="#eef0f2"/><circle cx="1030" cy="368" r="1" fill="#eef0f2"/><circle cx="1056" cy="82" r="1" fill="#eef0f2"/><circle cx="1056" cy="108" r="1" fill="#eef0f2"/><circle cx="1056" cy="134" r="1" fill="#eef0f2"/><circle cx="1056" cy="160" r="1" fill="#eef0f2"/><circle cx="1056" cy="186" r="1" fill="#eef0f2"/><circle cx="1056" cy="212" r="1" fill="#eef0f2"/><circle cx="1056" cy="238" r="1" fill="#eef0f2"/><circle cx="1056" cy="264" r="1" fill="#eef0f2"/><circle cx="1056" cy="290" r="1" fill="#eef0f2"/><circle cx="1056" cy="316" r="1" fill="#eef0f2"/><circle cx="1056" cy="342" r="1" fill="#eef0f2"/><circle cx="1056" cy="368" r="1" fill="#eef0f2"/><circle cx="1082" cy="82" r="1" fill="#eef0f2"/><circle cx="1082" cy="108" r="1" fill="#eef0f2"/><circle cx="1082" cy="134" r="1" fill="#eef0f2"/><circle cx="1082" cy="160" r="1" fill="#eef0f2"/><circle cx="1082" cy="186" r="1" fill="#eef0f2"/><circle cx="1082" cy="212" r="1" fill="#eef0f2"/><circle cx="1082" cy="238" r="1" fill="#eef0f2"/><circle cx="1082" cy="264" r="1" fill="#eef0f2"/><circle cx="1082" cy="290" r="1" fill="#eef0f2"/><circle cx="1082" cy="316" r="1" fill="#eef0f2"/><circle cx="1082" cy="342" r="1" fill="#eef0f2"/><circle cx="1082" cy="368" r="1" fill="#eef0f2"/><circle cx="1108" cy="82" r="1" fill="#eef0f2"/><circle cx="1108" cy="108" r="1" fill="#eef0f2"/><circle cx="1108" cy="134" r="1" fill="#eef0f2"/><circle cx="1108" cy="160" r="1" fill="#eef0f2"/><circle cx="1108" cy="186" r="1" fill="#eef0f2"/><circle cx="1108" cy="212" r="1" fill="#eef0f2"/><circle cx="1108" cy="238" r="1" fill="#eef0f2"/><circle cx="1108" cy="264" r="1" fill="#eef0f2"/><circle cx="1108" cy="290" r="1" fill="#eef0f2"/><circle cx="1108" cy="316" r="1" fill="#eef0f2"/><circle cx="1108" cy="342" r="1" fill="#eef0f2"/><circle cx="1108" cy="368" r="1" fill="#eef0f2"/><circle cx="1134" cy="82" r="1" fill="#eef0f2"/><circle cx="1134" cy="108" r="1" fill="#eef0f2"/><circle cx="1134" cy="134" r="1" fill="#eef0f2"/><circle cx="1134" cy="160" r="1" fill="#eef0f2"/><circle cx="1134" cy="186" r="1" fill="#eef0f2"/><circle cx="1134" cy="212" r="1" fill="#eef0f2"/><circle cx="1134" cy="238" r="1" fill="#eef0f2"/><circle cx="1134" cy="264" r="1" fill="#eef0f2"/><circle cx="1134" cy="290" r="1" fill="#eef0f2"/><circle cx="1134" cy="316" r="1" fill="#eef0f2"/><circle cx="1134" cy="342" r="1" fill="#eef0f2"/><circle cx="1134" cy="368" r="1" fill="#eef0f2"/>
<rect x="12.5" y="233" width="115.0" height="30" rx="15" fill="#e7f6ee" stroke="#bfe6d2"/>
<text x="28.5" y="252.5" font-size="12.5" font-weight="700" letter-spacing="0.5" fill="#12855a">INPUT</text>
<rect x="73.5" y="240" width="38.0" height="16" rx="8" fill="#12855a" opacity="0.13"/>
<text x="92.5" y="251.5" font-size="10" text-anchor="middle" fill="#12855a">text</text>
<rect x="948.4" y="233" width="123.19999999999999" height="30" rx="15" fill="#fdf3e2" stroke="#f0dcae"/>
<text x="964.4" y="252.5" font-size="12.5" font-weight="700" letter-spacing="0.5" fill="#b7791f">OUTPUT</text>
<rect x="1017.6" y="240" width="38.0" height="16" rx="8" fill="#b7791f" opacity="0.13"/>
<text x="1036.6" y="251.5" font-size="10" text-anchor="middle" fill="#b7791f">text</text>
<path d="M127.5,248 C138.75,248 138.75,248 150,248" fill="none" stroke="#e3e5e8" stroke-width="1.6" marker-end="url(#a)"/>
<path d="M308,248 C328.0,248 328.0,248 348,248" fill="none" stroke="#e3e5e8" stroke-width="1.6" marker-end="url(#a)"/>
<text x="328.0" y="242.0" font-size="10" text-anchor="middle" fill="#9aa0a6">READY</text>
<path d="M506,248 C526.0,248 526.0,248 546,248" fill="none" stroke="#e3e5e8" stroke-width="1.6" marker-end="url(#a)"/>
<text x="526.0" y="242.0" font-size="10" text-anchor="middle" fill="#9aa0a6">list</text>
<path d="M704,248 C738.0,248 738.0,186 772,186" fill="none" stroke="#e3e5e8" stroke-width="1.6" marker-end="url(#a)"/>
<text x="738.0" y="211.0" font-size="10" text-anchor="middle" fill="#9aa0a6">worker</text>
<path d="M704,248 C738.0,248 738.0,328 772,328" fill="none" stroke="#e3e5e8" stroke-width="1.6" marker-end="url(#a)"/>
<path d="M930,186 C939.2,186 939.2,240 948.4,240" fill="none" stroke="#e3e5e8" stroke-width="1.6" marker-end="url(#a)"/>
<path d="M930,328 C939.2,328 939.2,256 948.4,256" fill="none" stroke="#e3e5e8" stroke-width="1.6" marker-end="url(#a)"/>
<rect x="150" y="220" width="158" height="56" rx="10" fill="#ffffff" stroke="#2ba5d4" stroke-width="1.8"/>
<rect x="150" y="220" width="4" height="56" rx="2" fill="#2ba5d4"/>
<text x="166" y="238" font-size="9.5" letter-spacing="0.6" fill="#9aa0a6">WORK · START</text>
<text x="166" y="256" font-size="14" font-weight="600" fill="#151719">clarify</text>
<text x="166" y="270" font-size="10.5" fill="#6c7175">read · default</text>
<rect x="348" y="220" width="158" height="56" rx="10" fill="#ffffff" stroke="#e3e5e8" stroke-width="1.2"/>
<text x="364" y="238" font-size="9.5" letter-spacing="0.6" fill="#9aa0a6">WORK</text>
<text x="364" y="256" font-size="14" font-weight="600" fill="#151719">frame</text>
<text x="364" y="270" font-size="10.5" fill="#6c7175">read · default</text>
<rect x="546" y="220" width="158" height="56" rx="10" fill="#ffffff" stroke="#e3e5e8" stroke-width="1.2"/>
<text x="562" y="238" font-size="9.5" letter-spacing="0.6" fill="#9aa0a6">PARALLEL</text>
<text x="562" y="256" font-size="14" font-weight="600" fill="#151719">explore</text>
<text x="562" y="270" font-size="10.5" fill="#6c7175">dynamic · ×N</text>
<rect x="772" y="158" width="158" height="56" rx="10" fill="#ffffff" stroke="#e3e5e8" stroke-width="1.2"/>
<text x="788" y="176" font-size="9.5" letter-spacing="0.6" fill="#9aa0a6">WORK · ×N</text>
<text x="788" y="194" font-size="14" font-weight="600" fill="#151719">probe</text>
<text x="788" y="208" font-size="10.5" fill="#6c7175">read · default</text>
<rect x="772" y="300" width="158" height="56" rx="10" fill="#ffffff" stroke="#e3e5e8" stroke-width="1.2"/>
<text x="788" y="318" font-size="9.5" letter-spacing="0.6" fill="#9aa0a6">WORK</text>
<text x="788" y="336" font-size="14" font-weight="600" fill="#151719">synthesize</text>
<text x="788" y="350" font-size="10.5" fill="#6c7175">read · default</text>
<rect x="12.5" y="233" width="115.0" height="30" rx="15" fill="#e7f6ee" stroke="#bfe6d2"/>
<text x="28.5" y="252.5" font-size="12.5" font-weight="700" letter-spacing="0.5" fill="#12855a">INPUT</text>
<rect x="73.5" y="240" width="38.0" height="16" rx="8" fill="#12855a" opacity="0.13"/>
<text x="92.5" y="251.5" font-size="10" text-anchor="middle" fill="#12855a">text</text>
<rect x="948.4" y="233" width="123.19999999999999" height="30" rx="15" fill="#fdf3e2" stroke="#f0dcae"/>
<text x="964.4" y="252.5" font-size="12.5" font-weight="700" letter-spacing="0.5" fill="#b7791f">OUTPUT</text>
<rect x="1017.6" y="240" width="38.0" height="16" rx="8" fill="#b7791f" opacity="0.13"/>
<text x="1036.6" y="251.5" font-size="10" text-anchor="middle" fill="#b7791f">text</text>
</svg>