<svg width="1160" height="560" viewBox="0 0 1160 560" xmlns="http://www.w3.org/2000/svg" font-family="system-ui, -apple-system, Segoe UI, Roboto, Helvetica, Arial, sans-serif" role="img" aria-label="durin executions list mockup">
<rect x="0.5" y="0.5" width="1159" height="559" rx="14" fill="#fafbfc" stroke="#e3e5e8"/>
<text x="30" y="37" font-size="13.5" fill="#6c7175">Workflows</text>
<rect x="118" y="20" width="98" height="26" rx="8" fill="#eef7fb" stroke="#2ba5d4"/>
<text x="167" y="37" font-size="12.5" text-anchor="middle" fill="#2ba5d4">Executions</text>
<line x1="16" y1="58" x2="1144" y2="58" stroke="#eceef0"/>
<text x="40" y="92" font-size="13" fill="#6c7175">28 executions</text>
<rect x="800" y="78" width="130" height="26" rx="8" fill="#ffffff" stroke="#e3e5e8"/>
<text x="814" y="95" font-size="12" fill="#151719">all</text>
<path d="M910,90 l5,5 l5,-5" fill="none" stroke="#9aa0a6" stroke-width="1.4"/>
<rect x="950" y="78" width="150" height="26" rx="8" fill="#ffffff" stroke="#e3e5e8"/>
<text x="964" y="95" font-size="12" fill="#151719">all workflows</text>
<path d="M1080,90 l5,5 l5,-5" fill="none" stroke="#9aa0a6" stroke-width="1.4"/>
<rect x="40" y="120" width="1080" height="58" rx="11" fill="#ffffff" stroke="#e3e5e8"/>
<text x="60" y="144" font-size="13.5" font-weight="600" font-family="ui-monospace, SFMono-Regular, Menlo, Consolas, monospace" fill="#151719">research-to-answer</text>
<rect x="228.79999999999998" y="131" width="79" height="19" rx="5" fill="none" stroke="#3a9d5d" stroke-opacity="0.5"/>
<text x="268.29999999999995" y="144" font-size="11" text-anchor="middle" fill="#3a9d5d">completed</text>
<text x="321.79999999999995" y="144" font-size="12" fill="#9aa0a6">2h ago</text>
<text x="60" y="165" font-size="12.5" fill="#6c7175">Compare two vector databases for a RAG stack — latency, recall, cost.</text>
<rect x="40" y="188" width="1080" height="58" rx="11" fill="#ffffff" stroke="#e3e5e8"/>
<text x="60" y="212" font-size="13.5" font-weight="600" font-family="ui-monospace, SFMono-Regular, Menlo, Consolas, monospace" fill="#151719">review-changes</text>
<rect x="194.39999999999998" y="199" width="79" height="19" rx="5" fill="none" stroke="#3a9d5d" stroke-opacity="0.5"/>
<text x="233.89999999999998" y="212" font-size="11" text-anchor="middle" fill="#3a9d5d">completed</text>
<text x="287.4" y="212" font-size="12" fill="#9aa0a6">yesterday</text>
<text x="60" y="233" font-size="12.5" fill="#6c7175">Review the authentication refactor branch for correctness and edge cases.</text>
<rect x="40" y="256" width="1080" height="58" rx="11" fill="#ffffff" stroke="#e3e5e8"/>
<text x="60" y="280" font-size="13.5" font-weight="600" font-family="ui-monospace, SFMono-Regular, Menlo, Consolas, monospace" fill="#151719">build-specs</text>
<rect x="168.6" y="267" width="65" height="19" rx="5" fill="none" stroke="#2ba5d4" stroke-opacity="0.5"/>
<text x="201.1" y="280" font-size="11" text-anchor="middle" fill="#2ba5d4">running</text>
<text x="247.6" y="280" font-size="12" fill="#9aa0a6">just now</text>
<text x="60" y="301" font-size="12.5" fill="#6c7175">Draft the engineering spec for the CSV export feature.</text>
<rect x="40" y="324" width="1080" height="58" rx="11" fill="#ffffff" stroke="#e3e5e8"/>
<text x="60" y="348" font-size="13.5" font-weight="600" font-family="ui-monospace, SFMono-Regular, Menlo, Consolas, monospace" fill="#151719">research-to-answer</text>
<rect x="228.79999999999998" y="335" width="65" height="19" rx="5" fill="none" stroke="#c9493f" stroke-opacity="0.5"/>
<text x="261.29999999999995" y="348" font-size="11" text-anchor="middle" fill="#c9493f">aborted</text>
<text x="307.79999999999995" y="348" font-size="12" fill="#9aa0a6">2 days ago</text>
<text x="60" y="369" font-size="12.5" fill="#6c7175">Summarise the latest papers on retrieval-augmented generation.</text>
<rect x="40" y="392" width="1080" height="58" rx="11" fill="#ffffff" stroke="#e3e5e8"/>
<text x="60" y="416" font-size="13.5" font-weight="600" font-family="ui-monospace, SFMono-Regular, Menlo, Consolas, monospace" fill="#151719">writing-plans</text>
<rect x="185.8" y="403" width="79" height="19" rx="5" fill="none" stroke="#3a9d5d" stroke-opacity="0.5"/>
<text x="225.3" y="416" font-size="11" text-anchor="middle" fill="#3a9d5d">completed</text>
<text x="278.8" y="416" font-size="12" fill="#9aa0a6">3 days ago</text>
<text x="60" y="437" font-size="12.5" fill="#6c7175">Plan the Q3 data-migration in staged, reversible steps.</text>
<rect x="40" y="460" width="1080" height="58" rx="11" fill="#ffffff" stroke="#e3e5e8"/>
<text x="60" y="484" font-size="13.5" font-weight="600" font-family="ui-monospace, SFMono-Regular, Menlo, Consolas, monospace" fill="#151719">debug</text>
<rect x="117.0" y="471" width="79" height="19" rx="5" fill="none" stroke="#3a9d5d" stroke-opacity="0.5"/>
<text x="156.5" y="484" font-size="11" text-anchor="middle" fill="#3a9d5d">completed</text>
<text x="210.0" y="484" font-size="12" fill="#9aa0a6">4 days ago</text>
<text x="60" y="505" font-size="12.5" fill="#6c7175">Trace the flaky checkout test and propose a fix.</text>
<rect x="40" y="528" width="1080" height="58" rx="11" fill="#ffffff" stroke="#e3e5e8"/>
<text x="60" y="552" font-size="13.5" font-weight="600" font-family="ui-monospace, SFMono-Regular, Menlo, Consolas, monospace" fill="#151719">execute-plan</text>
<rect x="177.2" y="539" width="79" height="19" rx="5" fill="none" stroke="#3a9d5d" stroke-opacity="0.5"/>
<text x="216.7" y="552" font-size="11" text-anchor="middle" fill="#3a9d5d">completed</text>
<text x="270.2" y="552" font-size="12" fill="#9aa0a6">last week</text>
<text x="60" y="573" font-size="12.5" fill="#6c7175">Apply the approved migration plan and verify each step.</text>
</svg>