<svg width="1160" height="560" viewBox="0 0 1160 560" xmlns="http://www.w3.org/2000/svg" font-family="system-ui, -apple-system, Segoe UI, Roboto, Helvetica, Arial, sans-serif" role="img" aria-label="durin memory graph mockup">
<rect x="0.5" y="0.5" width="1159" height="559" rx="14" fill="#ffffff" stroke="#e3e5e8"/>
<text x="26" y="36" font-size="15" font-weight="700" fill="#151719">Memory</text>
<rect x="112" y="20" width="66" height="26" rx="8" fill="#eef7fb" stroke="#2ba5d4"/>
<text x="145" y="37" font-size="12.5" text-anchor="middle" fill="#2ba5d4">Graph</text>
<text x="205" y="37" font-size="12.5" fill="#6c7175">Documents</text>
<text x="300" y="37" font-size="12.5" fill="#6c7175">· 248 nodes · 611 links</text>
<rect x="924" y="20" width="210" height="26" rx="8" fill="#f7f8f9" stroke="#e3e5e8"/>
<text x="938" y="37" font-size="12" fill="#9aa0a6">Search memory…</text>
<line x1="16" y1="58" x2="1144" y2="58" stroke="#eceef0"/>
<line x1="430" y1="290" x2="600" y2="200" stroke="#d7dbe0" stroke-width="1.3"/>
<line x1="430" y1="290" x2="620" y2="360" stroke="#d7dbe0" stroke-width="1.3"/>
<line x1="430" y1="290" x2="300" y2="180" stroke="#d7dbe0" stroke-width="1.3"/>
<line x1="430" y1="290" x2="300" y2="400" stroke="#d7dbe0" stroke-width="1.3"/>
<line x1="430" y1="290" x2="500" y2="430" stroke="#d7dbe0" stroke-width="1.3"/>
<line x1="430" y1="290" x2="180" y2="300" stroke="#d7dbe0" stroke-width="1.3"/>
<line x1="430" y1="290" x2="470" y2="150" stroke="#d7dbe0" stroke-width="1.3"/>
<line x1="600" y1="200" x2="720" y2="270" stroke="#d7dbe0" stroke-width="1.3"/>
<line x1="600" y1="200" x2="760" y2="180" stroke="#d7dbe0" stroke-width="1.3"/>
<line x1="620" y1="360" x2="720" y2="270" stroke="#d7dbe0" stroke-width="1.3"/>
<line x1="720" y1="270" x2="880" y2="240" stroke="#d7dbe0" stroke-width="1.3"/>
<line x1="620" y1="360" x2="880" y2="360" stroke="#d7dbe0" stroke-width="1.3"/>
<line x1="180" y1="300" x2="210" y2="430" stroke="#d7dbe0" stroke-width="1.3"/>
<line x1="180" y1="300" x2="150" y2="180" stroke="#d7dbe0" stroke-width="1.3"/>
<line x1="430" y1="290" x2="540" y2="300" stroke="#d7dbe0" stroke-width="1.3"/>
<line x1="600" y1="200" x2="390" y2="180" stroke="#d7dbe0" stroke-width="1.3"/>
<line x1="620" y1="360" x2="690" y2="430" stroke="#d7dbe0" stroke-width="1.3"/>
<line x1="300" y1="180" x2="360" y2="360" stroke="#d7dbe0" stroke-width="1.3"/>
<line x1="720" y1="270" x2="800" y2="320" stroke="#d7dbe0" stroke-width="1.3"/>
<line x1="880" y1="240" x2="960" y2="300" stroke="#d7dbe0" stroke-width="1.3"/>
<line x1="300" y1="400" x2="210" y2="430" stroke="#d7dbe0" stroke-width="1.3"/>
<circle cx="430" cy="290" r="30" fill="#2ba5d4" opacity="0.9"/>
<circle cx="430" cy="290" r="30" fill="none" stroke="#ffffff" stroke-width="1.5" opacity="0.6"/>
<text x="430" y="333" font-size="12.5" font-weight="600" text-anchor="middle" fill="#151719">durin</text>
<circle cx="600" cy="200" r="20" fill="#9aa3ad" opacity="0.9"/>
<circle cx="600" cy="200" r="20" fill="none" stroke="#ffffff" stroke-width="1.5" opacity="0.6"/>
<text x="600" y="233" font-size="12.5" font-weight="600" text-anchor="middle" fill="#151719">vector search</text>
<circle cx="720" cy="270" r="16" fill="#9aa3ad" opacity="0.9"/>
<circle cx="720" cy="270" r="16" fill="none" stroke="#ffffff" stroke-width="1.5" opacity="0.6"/>
<text x="720" y="299" font-size="11" font-weight="400" text-anchor="middle" fill="#6c7175">embeddings</text>
<circle cx="620" cy="360" r="17" fill="#9aa3ad" opacity="0.9"/>
<circle cx="620" cy="360" r="17" fill="none" stroke="#ffffff" stroke-width="1.5" opacity="0.6"/>
<text x="620" y="390" font-size="11" font-weight="400" text-anchor="middle" fill="#6c7175">RAG</text>
<circle cx="760" cy="180" r="13" fill="#9aa3ad" opacity="0.9"/>
<circle cx="760" cy="180" r="13" fill="none" stroke="#ffffff" stroke-width="1.5" opacity="0.6"/>
<text x="760" y="206" font-size="11" font-weight="400" text-anchor="middle" fill="#6c7175">retrieval</text>
<circle cx="300" cy="180" r="15" fill="#9aa3ad" opacity="0.9"/>
<circle cx="300" cy="180" r="15" fill="none" stroke="#ffffff" stroke-width="1.5" opacity="0.6"/>
<text x="300" y="208" font-size="11" font-weight="400" text-anchor="middle" fill="#6c7175">onboarding</text>
<circle cx="300" cy="400" r="14" fill="#9aa3ad" opacity="0.9"/>
<circle cx="300" cy="400" r="14" fill="none" stroke="#ffffff" stroke-width="1.5" opacity="0.6"/>
<text x="300" y="427" font-size="11" font-weight="400" text-anchor="middle" fill="#6c7175">pricing</text>
<circle cx="500" cy="430" r="13" fill="#9aa3ad" opacity="0.9"/>
<circle cx="500" cy="430" r="13" fill="none" stroke="#ffffff" stroke-width="1.5" opacity="0.6"/>
<text x="500" y="456" font-size="11" font-weight="400" text-anchor="middle" fill="#6c7175">release notes</text>
<circle cx="180" cy="300" r="18" fill="#e0843f" opacity="0.9"/>
<circle cx="180" cy="300" r="18" fill="none" stroke="#ffffff" stroke-width="1.5" opacity="0.6"/>
<text x="180" y="331" font-size="12.5" font-weight="600" text-anchor="middle" fill="#151719">Acme Corp</text>
<circle cx="210" cy="430" r="14" fill="#a855f7" opacity="0.9"/>
<circle cx="210" cy="430" r="14" fill="none" stroke="#ffffff" stroke-width="1.5" opacity="0.6"/>
<text x="210" y="457" font-size="11" font-weight="400" text-anchor="middle" fill="#6c7175">a teammate</text>
<circle cx="470" cy="150" r="13" fill="#10b981" opacity="0.9"/>
<circle cx="470" cy="150" r="13" fill="none" stroke="#ffffff" stroke-width="1.5" opacity="0.6"/>
<text x="470" y="176" font-size="11" font-weight="400" text-anchor="middle" fill="#6c7175">design review</text>
<circle cx="880" cy="240" r="15" fill="#7c9cff" opacity="0.9"/>
<circle cx="880" cy="240" r="15" fill="none" stroke="#ffffff" stroke-width="1.5" opacity="0.6"/>
<text x="880" y="268" font-size="11" font-weight="400" text-anchor="middle" fill="#6c7175">API reference</text>
<circle cx="880" cy="360" r="14" fill="#c084fc" opacity="0.9"/>
<circle cx="880" cy="360" r="14" fill="none" stroke="#ffffff" stroke-width="1.5" opacity="0.6"/>
<text x="880" y="387" font-size="11" font-weight="400" text-anchor="middle" fill="#6c7175">spec.pdf</text>
<circle cx="150" cy="180" r="12" fill="#14b8a6" opacity="0.9"/>
<circle cx="150" cy="180" r="12" fill="none" stroke="#ffffff" stroke-width="1.5" opacity="0.6"/>
<text x="150" y="205" font-size="11" font-weight="400" text-anchor="middle" fill="#6c7175">Berlin</text>
<circle cx="390" cy="180" r="10" fill="#7c8794" opacity="0.9"/>
<circle cx="390" cy="180" r="10" fill="none" stroke="#ffffff" stroke-width="1.5" opacity="0.6"/>
<text x="390" y="203" font-size="11" font-weight="400" text-anchor="middle" fill="#6c7175">chat · Apr 3</text>
<circle cx="540" cy="300" r="11" fill="#7c8794" opacity="0.9"/>
<circle cx="540" cy="300" r="11" fill="none" stroke="#ffffff" stroke-width="1.5" opacity="0.6"/>
<text x="540" y="324" font-size="11" font-weight="400" text-anchor="middle" fill="#6c7175">chat · Apr 7</text>
<circle cx="690" cy="430" r="10" fill="#7c8794" opacity="0.9"/>
<circle cx="690" cy="430" r="10" fill="none" stroke="#ffffff" stroke-width="1.5" opacity="0.6"/>
<text x="690" y="453" font-size="11" font-weight="400" text-anchor="middle" fill="#6c7175">chat · Apr 9</text>
<circle cx="360" cy="360" r="10" fill="#7c8794" opacity="0.9"/>
<circle cx="360" cy="360" r="10" fill="none" stroke="#ffffff" stroke-width="1.5" opacity="0.6"/>
<text x="360" y="383" font-size="11" font-weight="400" text-anchor="middle" fill="#6c7175">chat · Apr 12</text>
<circle cx="800" cy="320" r="9" fill="#7c8794" opacity="0.9"/>
<circle cx="800" cy="320" r="9" fill="none" stroke="#ffffff" stroke-width="1.5" opacity="0.6"/>
<text x="800" y="342" font-size="11" font-weight="400" text-anchor="middle" fill="#6c7175">chat · Apr 14</text>
<circle cx="960" cy="300" r="9" fill="#7c8794" opacity="0.9"/>
<circle cx="960" cy="300" r="9" fill="none" stroke="#ffffff" stroke-width="1.5" opacity="0.6"/>
<text x="960" y="322" font-size="11" font-weight="400" text-anchor="middle" fill="#6c7175">chat · Apr 15</text>
<text x="30" y="538" font-size="11" fill="#6c7175">type</text>
<circle cx="74" cy="534" r="5" fill="#2ba5d4"/>
<text x="84" y="538" font-size="11" fill="#6c7175">project</text>
<circle cx="146.2" cy="534" r="5" fill="#9aa3ad"/>
<text x="156.2" y="538" font-size="11" fill="#6c7175">topic</text>
<circle cx="205.2" cy="534" r="5" fill="#e0843f"/>
<text x="215.2" y="538" font-size="11" fill="#6c7175">organization</text>
<circle cx="310.4" cy="534" r="5" fill="#a855f7"/>
<text x="320.4" y="538" font-size="11" fill="#6c7175">person</text>
<circle cx="376.0" cy="534" r="5" fill="#10b981"/>
<text x="386.0" y="538" font-size="11" fill="#6c7175">practice</text>
<circle cx="454.8" cy="534" r="5" fill="#7c9cff"/>
<text x="464.8" y="538" font-size="11" fill="#6c7175">reference</text>
<circle cx="540.2" cy="534" r="5" fill="#c084fc"/>
<text x="550.2" y="538" font-size="11" fill="#6c7175">artifact</text>
<circle cx="619.0" cy="534" r="5" fill="#14b8a6"/>
<text x="629.0" y="538" font-size="11" fill="#6c7175">place</text>
<circle cx="678.0" cy="534" r="5" fill="#7c8794"/>
<text x="688.0" y="538" font-size="11" fill="#6c7175">session</text>
</svg>