<svg width="1280" height="560" viewBox="0 0 1280 560" xmlns="http://www.w3.org/2000/svg" role="img" aria-label="durin workflow graph mockup" font-family="system-ui, -apple-system, Segoe UI, Roboto, Helvetica, Arial, sans-serif">
<defs>
  <marker id="arrow" viewBox="0 0 10 10" refX="9" refY="5" markerWidth="7" markerHeight="7" orient="auto-start-reverse">
    <path d="M0,0 L10,5 L0,10 z" fill="#2b3037"/></marker>
  <marker id="arrowc" viewBox="0 0 10 10" refX="9" refY="5" markerWidth="7" markerHeight="7" orient="auto-start-reverse">
    <path d="M0,0 L10,5 L0,10 z" fill="#57b6e6"/></marker>
</defs>
<rect x="0" y="0" width="1280" height="560" rx="20" fill="#0e1113"/>
<rect x="16" y="16" width="1248" height="528" rx="16" fill="#14171b" stroke="#2b3037" stroke-width="1"/>
<circle cx="46" cy="52" r="6" fill="#44c8e6"/>
<text x="62" y="57" font-size="15" font-weight="700" fill="#e7e9ec">Workflow · draft-release-notes</text>
<text x="1240" y="57" font-size="12.5" text-anchor="end" fill="#8b9096">6 nodes · 1 loop · 1 checkpoint</text>
<line x1="30" y1="76" x2="1250" y2="76" stroke="#2b3037" stroke-width="1"/>
<path d="M224,271.0 C284,271.0 240,271.0 300,271.0" fill="none" stroke="#2b3037" stroke-width="2" marker-end="url(#arrow)"/>
<path d="M468,271.0 C528,271.0 486,271 546,271" fill="none" stroke="#2b3037" stroke-width="2" marker-end="url(#arrow)"/>
<path d="M674,271 C714,271 680,181.0 720,181.0" fill="none" stroke="#2b3037" stroke-width="2" marker-end="url(#arrow)"/>
<path d="M674,271 C714,271 680,361.0 720,361.0" fill="none" stroke="#2b3037" stroke-width="2" marker-end="url(#arrow)"/>
<rect x="672" y="252" width="96" height="18" rx="9" fill="#14171b" stroke="#57b6e6" stroke-width="1" opacity="0.9"/>
<text x="720" y="265" font-size="11" text-anchor="middle" fill="#8fd0f2">yes · in parallel</text>
<path d="M610,317 C670,317 566,400 626,400" fill="none" stroke="#2b3037" stroke-width="2" marker-end="url(#arrow)"/><rect x="607.4" y="337.5" width="21.2" height="18" rx="9" fill="#14171b" stroke="#2b3037" stroke-width="1"/><text x="618.0" y="350.5" font-size="11" text-anchor="middle" fill="#8b9096">no</text>
<path d="M888,181.0 C938,181.0 918,261.0 968,261.0" fill="none" stroke="#2b3037" stroke-width="2" marker-end="url(#arrow)"/>
<path d="M888,361.0 C938,361.0 918,281.0 968,281.0" fill="none" stroke="#2b3037" stroke-width="2" marker-end="url(#arrow)"/>
<path d="M1052.0,302 C1072.0,302 1152.0,372 1172.0,372" fill="none" stroke="#2b3037" stroke-width="2" marker-end="url(#arrow)"/>
<path d="M1008,240 C1048,150 760,60 800,150" fill="none" stroke="#57b6e6" stroke-width="2" stroke-dasharray="2 6" opacity="0.7" marker-end="url(#arrowc)"/><rect x="850.5" y="49" width="107.0" height="18" rx="9" fill="#14171b" stroke="#57b6e6" stroke-width="1" opacity="0.9"/><text x="904.0" y="62" font-size="11" text-anchor="middle" fill="#8fd0f2">request changes</text>
<g opacity="1.0"><rect x="56" y="240" width="168" height="62" rx="12" fill="#1b1f24" stroke="#2b3037" stroke-width="1.2"/><rect x="70" y="254" width="26" height="26" rx="7" fill="#57b6e6" opacity="0.14"/><text x="83" y="272" font-size="15" text-anchor="middle" fill="#8fd0f2">⚡</text><text x="106" y="267" font-size="15.5" font-weight="600" fill="#e7e9ec">New PR merged</text><text x="106" y="286" font-size="12" fill="#8b9096">trigger</text></g>
<g opacity="1.0"><rect x="300" y="240" width="168" height="62" rx="12" fill="#1b1f24" stroke="#2b3037" stroke-width="1.2"/><rect x="314" y="254" width="26" height="26" rx="7" fill="#57b6e6" opacity="0.14"/><text x="327" y="272" font-size="15" text-anchor="middle" fill="#8fd0f2">📥</text><text x="350" y="267" font-size="15.5" font-weight="600" fill="#e7e9ec">Collect changes</text><text x="350" y="286" font-size="12" fill="#8b9096">read · git</text></g>
<g><path d="M610,225 L674,271 L610,317 L546,271 Z" fill="#1b1f24" stroke="#57b6e6" stroke-width="1.4" stroke-linejoin="round"/><text x="610" y="269" font-size="12.5" font-weight="600" text-anchor="middle" fill="#e7e9ec">Release-worthy?</text><text x="610" y="285" font-size="10.5" text-anchor="middle" fill="#8b9096">router</text></g>
<g opacity="1.0"><rect x="720" y="150" width="168" height="62" rx="12" fill="#1b1f24" stroke="#2b3037" stroke-width="1.2"/><rect x="734" y="164" width="26" height="26" rx="7" fill="#57b6e6" opacity="0.14"/><text x="747" y="182" font-size="15" text-anchor="middle" fill="#8fd0f2">✎</text><text x="770" y="177" font-size="15.5" font-weight="600" fill="#e7e9ec">Draft highlights</text><text x="770" y="196" font-size="12" fill="#8b9096">skill · summarize</text></g>
<g opacity="1.0"><rect x="720" y="330" width="168" height="62" rx="12" fill="#1b1f24" stroke="#2b3037" stroke-width="1.2"/><rect x="734" y="344" width="26" height="26" rx="7" fill="#57b6e6" opacity="0.14"/><text x="747" y="362" font-size="15" text-anchor="middle" fill="#8fd0f2">📝</text><text x="770" y="357" font-size="15.5" font-weight="600" fill="#e7e9ec">Update changelog</text><text x="770" y="376" font-size="12" fill="#8b9096">skill · changelog</text></g>
<g opacity="1.0"><rect x="964" y="236" width="176" height="70" rx="16" fill="#57b6e6" opacity="0.10"/><rect x="968" y="240" width="168" height="62" rx="12" fill="#20252b" stroke="#57b6e6" stroke-width="2"/><rect x="982" y="254" width="26" height="26" rx="7" fill="#57b6e6" opacity="0.14"/><text x="995" y="272" font-size="15" text-anchor="middle" fill="#8fd0f2">⏸</text><text x="1018" y="267" font-size="15.5" font-weight="600" fill="#e7e9ec">Review with you</text><text x="1018" y="286" font-size="12" fill="#8fd0f2">waiting for you</text></g>
<g opacity="1.0"><rect x="1088" y="372" width="168" height="62" rx="12" fill="#1b1f24" stroke="#2b3037" stroke-width="1.2"/><rect x="1102" y="386" width="26" height="26" rx="7" fill="#57b6e6" opacity="0.14"/><text x="1115" y="404" font-size="15" text-anchor="middle" fill="#8fd0f2">🚀</text><text x="1138" y="399" font-size="15.5" font-weight="600" fill="#e7e9ec">Publish release</text><text x="1138" y="418" font-size="12" fill="#8b9096">output</text></g>
<g opacity="0.55"><rect x="556" y="400" width="132" height="46" rx="12" fill="#1b1f24" stroke="#2b3037" stroke-width="1.2"/><rect x="570" y="414" width="26" height="26" rx="7" fill="#57b6e6" opacity="0.14"/><text x="583" y="432" font-size="15" text-anchor="middle" fill="#8fd0f2">✕</text><text x="606" y="427" font-size="15.5" font-weight="600" fill="#e7e9ec">Skip</text><text x="606" y="446" font-size="12" fill="#8b9096">end</text></g>
</svg>