<svg width="1120" height="600" viewBox="0 0 1120 600" xmlns="http://www.w3.org/2000/svg" role="img" aria-label="durin runs panel mockup" font-family="system-ui, -apple-system, Segoe UI, Roboto, Helvetica, Arial, sans-serif">
<rect width="1120" height="600" rx="20" fill="#0e1113"/>
<rect x="16" y="16" width="1088" height="568" rx="16" fill="#14171b" stroke="#2b3037"/>
<circle cx="46" cy="52" r="6" fill="#44c8e6"/>
<text x="62" y="57" font-size="16" font-weight="700" fill="#e7e9ec">Runs</text>
<rect x="150" y="42" width="43" height="22" rx="11" fill="#57b6e6" opacity="0.16"/>
<rect x="150" y="42" width="43" height="22" rx="11" fill="none" stroke="#57b6e6"/>
<text x="171.5" y="57" font-size="12" text-anchor="middle" fill="#8fd0f2">All</text>
<rect x="203" y="42" width="71" height="22" rx="11" fill="#1b1f24" stroke="#2b3037"/>
<text x="238.5" y="57" font-size="12" text-anchor="middle" fill="#8b9096">Running</text>
<rect x="284" y="42" width="71" height="22" rx="11" fill="#1b1f24" stroke="#2b3037"/>
<text x="319.5" y="57" font-size="12" text-anchor="middle" fill="#8b9096">Waiting</text>
<rect x="365" y="42" width="50" height="22" rx="11" fill="#1b1f24" stroke="#2b3037"/>
<text x="390.0" y="57" font-size="12" text-anchor="middle" fill="#8b9096">Done</text>
<text x="1080" y="57" font-size="12.5" text-anchor="end" fill="#8b9096">12 runs · updated just now</text>
<line x1="30" y1="80" x2="1090" y2="80" stroke="#2b3037"/>
<rect x="30" y="98" width="1060" height="54" rx="12" fill="#20252b" stroke="#57b6e6" stroke-width="1.5"/><circle cx="58" cy="125" r="5" fill="#57b6e6"/><circle cx="58" cy="125" r="5" fill="none" stroke="#57b6e6" stroke-width="1.5" opacity="0.4"/><rect x="74" y="113" width="24" height="24" rx="7" fill="#57b6e6" opacity="0.12"/><text x="86" y="130" font-size="13" text-anchor="middle" fill="#8fd0f2">⚙</text><text x="110" y="122" font-size="14" font-weight="600" fill="#e7e9ec">draft-release-notes</text><text x="110" y="139" font-size="11.5" fill="#8b9096">workflow · 5 nodes</text><rect x="944.8" y="115" width="115.2" height="20" rx="6" fill="#1b1f24" stroke="#2b3037"/><text x="1002.4" y="129" font-size="10.5" text-anchor="middle" fill="#8b9096">nemotron-3-ultra</text><text x="928.8" y="129" font-size="11.5" text-anchor="end" fill="#8b9096">2m</text><rect x="766.5999999999999" y="115" width="64.19999999999999" height="20" rx="10" fill="#57b6e6" opacity="0.14"/><text x="798.6999999999999" y="129" font-size="11" font-weight="600" text-anchor="middle" fill="#57b6e6">Running</text>
<rect x="30" y="162" width="1060" height="166" rx="12" fill="#14171b" stroke="#2b3037"/>
<text x="60" y="184" font-size="13" fill="#5ec88a">✓</text>
<text x="84" y="184" font-size="12.5" fill="#e7e9ec">Collect changes</text>
<text x="1064" y="184" font-size="11.5" text-anchor="end" fill="#8b9096">1.2s</text>
<line x1="62" y1="192" x2="62" y2="206" stroke="#2b3037"/>
<text x="60" y="214" font-size="13" fill="#5ec88a">✓</text>
<text x="84" y="214" font-size="12.5" fill="#e7e9ec">Draft highlights</text>
<text x="1064" y="214" font-size="11.5" text-anchor="end" fill="#8b9096">8.4s</text>
<line x1="62" y1="222" x2="62" y2="236" stroke="#2b3037"/>
<text x="60" y="244" font-size="13" fill="#5ec88a">✓</text>
<text x="84" y="244" font-size="12.5" fill="#e7e9ec">Update changelog</text>
<text x="1064" y="244" font-size="11.5" text-anchor="end" fill="#8b9096">3.1s</text>
<line x1="62" y1="252" x2="62" y2="266" stroke="#2b3037"/>
<text x="60" y="274" font-size="13" fill="#57b6e6">⏸</text>
<text x="84" y="274" font-size="12.5" fill="#e7e9ec">Review with you</text>
<text x="1064" y="274" font-size="11.5" text-anchor="end" fill="#57b6e6">waiting for you</text>
<line x1="62" y1="282" x2="62" y2="296" stroke="#2b3037"/>
<text x="60" y="304" font-size="13" fill="#8b9096">○</text>
<text x="84" y="304" font-size="12.5" fill="#8b9096">Publish release</text>
<text x="1064" y="304" font-size="11.5" text-anchor="end" fill="#8b9096">queued</text>
<rect x="30" y="342" width="1060" height="54" rx="12" fill="#1b1f24" stroke="#2b3037" stroke-width="1"/><circle cx="58" cy="369" r="5" fill="#5ec88a"/><rect x="74" y="357" width="24" height="24" rx="7" fill="#57b6e6" opacity="0.12"/><text x="86" y="374" font-size="13" text-anchor="middle" fill="#8fd0f2">✉</text><text x="110" y="366" font-size="14" font-weight="600" fill="#e7e9ec">triage-inbox</text><text x="110" y="383" font-size="11.5" fill="#8b9096">workflow · auto-label + route</text><rect x="975.8" y="359" width="84.2" height="20" rx="6" fill="#1b1f24" stroke="#2b3037"/><text x="1017.9" y="373" font-size="10.5" text-anchor="middle" fill="#8b9096">claude-opus</text><text x="959.8" y="373" font-size="11.5" text-anchor="end" fill="#8b9096">14m ago</text><rect x="817.4" y="359" width="44.4" height="20" rx="10" fill="#5ec88a" opacity="0.14"/><text x="839.6" y="373" font-size="11" font-weight="600" text-anchor="middle" fill="#5ec88a">Done</text>
<rect x="30" y="406" width="1060" height="54" rx="12" fill="#1b1f24" stroke="#2b3037" stroke-width="1"/><circle cx="58" cy="433" r="5" fill="#5ec88a"/><rect x="74" y="421" width="24" height="24" rx="7" fill="#57b6e6" opacity="0.12"/><text x="86" y="438" font-size="13" text-anchor="middle" fill="#8fd0f2">⏰</text><text x="110" y="430" font-size="14" font-weight="600" fill="#e7e9ec">weekly-metrics</text><text x="110" y="447" font-size="11.5" fill="#8b9096">cron · every Mon 09:00</text><rect x="1000.6" y="423" width="59.4" height="20" rx="6" fill="#1b1f24" stroke="#2b3037"/><text x="1030.3" y="437" font-size="10.5" text-anchor="middle" fill="#8b9096">glm-5.1</text><text x="984.6" y="437" font-size="11.5" text-anchor="end" fill="#8b9096">1h ago</text><rect x="842.2" y="423" width="44.4" height="20" rx="10" fill="#5ec88a" opacity="0.14"/><text x="864.4000000000001" y="437" font-size="11" font-weight="600" text-anchor="middle" fill="#5ec88a">Done</text>
<rect x="30" y="470" width="1060" height="54" rx="12" fill="#1b1f24" stroke="#2b3037" stroke-width="1"/><circle cx="58" cy="497" r="5" fill="#d9a441"/><rect x="74" y="485" width="24" height="24" rx="7" fill="#57b6e6" opacity="0.12"/><text x="86" y="502" font-size="13" text-anchor="middle" fill="#8fd0f2">🔍</text><text x="110" y="494" font-size="14" font-weight="600" fill="#e7e9ec">research: vector DBs</text><text x="110" y="511" font-size="11.5" fill="#8b9096">agent task</text><rect x="1013.0" y="487" width="47.0" height="20" rx="6" fill="#1b1f24" stroke="#2b3037"/><text x="1036.5" y="501" font-size="10.5" text-anchor="middle" fill="#8b9096">gpt-5</text><text x="997.0" y="501" font-size="11.5" text-anchor="end" fill="#8b9096">5m ago</text><rect x="834.8" y="487" width="64.19999999999999" height="20" rx="10" fill="#d9a441" opacity="0.14"/><text x="866.9" y="501" font-size="11" font-weight="600" text-anchor="middle" fill="#d9a441">Waiting</text>
<rect x="30" y="534" width="1060" height="54" rx="12" fill="#1b1f24" stroke="#2b3037" stroke-width="1"/><circle cx="58" cy="561" r="5" fill="#5ec88a"/><rect x="74" y="549" width="24" height="24" rx="7" fill="#57b6e6" opacity="0.12"/><text x="86" y="566" font-size="13" text-anchor="middle" fill="#8fd0f2">🗂</text><text x="110" y="558" font-size="14" font-weight="600" fill="#e7e9ec">sync-obsidian</text><text x="110" y="575" font-size="11.5" fill="#8b9096">skill · export memory</text><rect x="1037.8" y="551" width="22.2" height="20" rx="6" fill="#1b1f24" stroke="#2b3037"/><text x="1048.9" y="565" font-size="10.5" text-anchor="middle" fill="#8b9096">—</text><text x="1021.8" y="565" font-size="11.5" text-anchor="end" fill="#8b9096">3h ago</text><rect x="879.4" y="551" width="44.4" height="20" rx="10" fill="#5ec88a" opacity="0.14"/><text x="901.6" y="565" font-size="11" font-weight="600" text-anchor="middle" fill="#5ec88a">Done</text>
</svg>